<mxfile host="65bd71144e" pages="2">
    <diagram id="f6h0VI8BL8HMhSzbs_C3" name="Page-1">
        <mxGraphModel dx="945" dy="736" grid="1" gridSize="10" guides="1" tooltips="1" connect="1" arrows="1" fold="1" page="1" pageScale="1" pageWidth="827" pageHeight="1169" math="0" shadow="0">
            <root>
                <mxCell id="0"/>
                <mxCell id="1" parent="0"/>
                <mxCell id="V1VXAKcIepDMNvetjRww-1" value="Empregado" style="shape=table;startSize=30;container=1;collapsible=1;childLayout=tableLayout;fixedRows=1;rowLines=0;fontStyle=1;align=center;resizeLast=1;fontColor=#000000;fontSize=13;" parent="1" vertex="1">
                    <mxGeometry x="300" y="730" width="180" height="190" as="geometry"/>
                </mxCell>
                <mxCell id="V1VXAKcIepDMNvetjRww-2" value="" style="shape=tableRow;horizontal=0;startSize=0;swimlaneHead=0;swimlaneBody=0;fillColor=none;collapsible=0;dropTarget=0;points=[[0,0.5],[1,0.5]];portConstraint=eastwest;top=0;left=0;right=0;bottom=1;fontColor=#000000;fontSize=13;" parent="V1VXAKcIepDMNvetjRww-1" vertex="1">
                    <mxGeometry y="30" width="180" height="30" as="geometry"/>
                </mxCell>
                <mxCell id="V1VXAKcIepDMNvetjRww-3" value="PK" style="shape=partialRectangle;connectable=0;fillColor=none;top=0;left=0;bottom=0;right=0;fontStyle=1;overflow=hidden;fontColor=#000000;fontSize=13;" parent="V1VXAKcIepDMNvetjRww-2" vertex="1">
                    <mxGeometry width="30" height="30" as="geometry">
                        <mxRectangle width="30" height="30" as="alternateBounds"/>
                    </mxGeometry>
                </mxCell>
                <mxCell id="V1VXAKcIepDMNvetjRww-4" value="cd_Empregado" style="shape=partialRectangle;connectable=0;fillColor=none;top=0;left=0;bottom=0;right=0;align=left;spacingLeft=6;fontStyle=5;overflow=hidden;fontColor=#000000;fontSize=13;" parent="V1VXAKcIepDMNvetjRww-2" vertex="1">
                    <mxGeometry x="30" width="150" height="30" as="geometry">
                        <mxRectangle width="150" height="30" as="alternateBounds"/>
                    </mxGeometry>
                </mxCell>
                <mxCell id="V1VXAKcIepDMNvetjRww-5" value="" style="shape=tableRow;horizontal=0;startSize=0;swimlaneHead=0;swimlaneBody=0;fillColor=none;collapsible=0;dropTarget=0;points=[[0,0.5],[1,0.5]];portConstraint=eastwest;top=0;left=0;right=0;bottom=0;fontColor=#000000;fontSize=13;" parent="V1VXAKcIepDMNvetjRww-1" vertex="1">
                    <mxGeometry y="60" width="180" height="30" as="geometry"/>
                </mxCell>
                <mxCell id="V1VXAKcIepDMNvetjRww-6" value="" style="shape=partialRectangle;connectable=0;fillColor=none;top=0;left=0;bottom=0;right=0;editable=1;overflow=hidden;fontColor=#000000;fontSize=13;" parent="V1VXAKcIepDMNvetjRww-5" vertex="1">
                    <mxGeometry width="30" height="30" as="geometry">
                        <mxRectangle width="30" height="30" as="alternateBounds"/>
                    </mxGeometry>
                </mxCell>
                <mxCell id="V1VXAKcIepDMNvetjRww-7" value="nm_Empregado" style="shape=partialRectangle;connectable=0;fillColor=none;top=0;left=0;bottom=0;right=0;align=left;spacingLeft=6;overflow=hidden;fontColor=#000000;fontSize=13;" parent="V1VXAKcIepDMNvetjRww-5" vertex="1">
                    <mxGeometry x="30" width="150" height="30" as="geometry">
                        <mxRectangle width="150" height="30" as="alternateBounds"/>
                    </mxGeometry>
                </mxCell>
                <mxCell id="V1VXAKcIepDMNvetjRww-8" value="" style="shape=tableRow;horizontal=0;startSize=0;swimlaneHead=0;swimlaneBody=0;fillColor=none;collapsible=0;dropTarget=0;points=[[0,0.5],[1,0.5]];portConstraint=eastwest;top=0;left=0;right=0;bottom=0;fontColor=#000000;fontSize=13;" parent="V1VXAKcIepDMNvetjRww-1" vertex="1">
                    <mxGeometry y="90" width="180" height="30" as="geometry"/>
                </mxCell>
                <mxCell id="V1VXAKcIepDMNvetjRww-9" value="" style="shape=partialRectangle;connectable=0;fillColor=none;top=0;left=0;bottom=0;right=0;editable=1;overflow=hidden;fontColor=#000000;fontSize=13;" parent="V1VXAKcIepDMNvetjRww-8" vertex="1">
                    <mxGeometry width="30" height="30" as="geometry">
                        <mxRectangle width="30" height="30" as="alternateBounds"/>
                    </mxGeometry>
                </mxCell>
                <mxCell id="V1VXAKcIepDMNvetjRww-10" value="dt_Nasc" style="shape=partialRectangle;connectable=0;fillColor=none;top=0;left=0;bottom=0;right=0;align=left;spacingLeft=6;overflow=hidden;fontColor=#000000;fontSize=13;" parent="V1VXAKcIepDMNvetjRww-8" vertex="1">
                    <mxGeometry x="30" width="150" height="30" as="geometry">
                        <mxRectangle width="150" height="30" as="alternateBounds"/>
                    </mxGeometry>
                </mxCell>
                <mxCell id="V1VXAKcIepDMNvetjRww-11" value="" style="shape=tableRow;horizontal=0;startSize=0;swimlaneHead=0;swimlaneBody=0;fillColor=none;collapsible=0;dropTarget=0;points=[[0,0.5],[1,0.5]];portConstraint=eastwest;top=0;left=0;right=0;bottom=0;fontColor=#000000;fontSize=13;" parent="V1VXAKcIepDMNvetjRww-1" vertex="1">
                    <mxGeometry y="120" width="180" height="30" as="geometry"/>
                </mxCell>
                <mxCell id="V1VXAKcIepDMNvetjRww-12" value="" style="shape=partialRectangle;connectable=0;fillColor=none;top=0;left=0;bottom=0;right=0;editable=1;overflow=hidden;fontColor=#000000;fontSize=13;" parent="V1VXAKcIepDMNvetjRww-11" vertex="1">
                    <mxGeometry width="30" height="30" as="geometry">
                        <mxRectangle width="30" height="30" as="alternateBounds"/>
                    </mxGeometry>
                </mxCell>
                <mxCell id="V1VXAKcIepDMNvetjRww-13" value="nr_CPF" style="shape=partialRectangle;connectable=0;fillColor=none;top=0;left=0;bottom=0;right=0;align=left;spacingLeft=6;overflow=hidden;fontColor=#000000;fontSize=13;" parent="V1VXAKcIepDMNvetjRww-11" vertex="1">
                    <mxGeometry x="30" width="150" height="30" as="geometry">
                        <mxRectangle width="150" height="30" as="alternateBounds"/>
                    </mxGeometry>
                </mxCell>
                <mxCell id="V1VXAKcIepDMNvetjRww-131" value="" style="shape=tableRow;horizontal=0;startSize=0;swimlaneHead=0;swimlaneBody=0;fillColor=none;collapsible=0;dropTarget=0;points=[[0,0.5],[1,0.5]];portConstraint=eastwest;top=0;left=0;right=0;bottom=0;fontColor=#000000;fontSize=13;" parent="V1VXAKcIepDMNvetjRww-1" vertex="1">
                    <mxGeometry y="150" width="180" height="30" as="geometry"/>
                </mxCell>
                <mxCell id="V1VXAKcIepDMNvetjRww-132" value="FK" style="shape=partialRectangle;connectable=0;fillColor=none;top=0;left=0;bottom=0;right=0;fontStyle=0;overflow=hidden;fontColor=#000000;fontSize=13;" parent="V1VXAKcIepDMNvetjRww-131" vertex="1">
                    <mxGeometry width="30" height="30" as="geometry">
                        <mxRectangle width="30" height="30" as="alternateBounds"/>
                    </mxGeometry>
                </mxCell>
                <mxCell id="V1VXAKcIepDMNvetjRww-133" value="cd_Genero" style="shape=partialRectangle;connectable=0;fillColor=none;top=0;left=0;bottom=0;right=0;align=left;spacingLeft=6;fontStyle=0;overflow=hidden;fontColor=#000000;fontSize=13;" parent="V1VXAKcIepDMNvetjRww-131" vertex="1">
                    <mxGeometry x="30" width="150" height="30" as="geometry">
                        <mxRectangle width="150" height="30" as="alternateBounds"/>
                    </mxGeometry>
                </mxCell>
                <mxCell id="V1VXAKcIepDMNvetjRww-14" value="Cliente" style="shape=table;startSize=30;container=1;collapsible=1;childLayout=tableLayout;fixedRows=1;rowLines=0;fontStyle=1;align=center;resizeLast=1;fontColor=#000000;fontSize=13;" parent="1" vertex="1">
                    <mxGeometry x="330" y="480" width="180" height="130" as="geometry"/>
                </mxCell>
                <mxCell id="V1VXAKcIepDMNvetjRww-15" value="" style="shape=tableRow;horizontal=0;startSize=0;swimlaneHead=0;swimlaneBody=0;fillColor=none;collapsible=0;dropTarget=0;points=[[0,0.5],[1,0.5]];portConstraint=eastwest;top=0;left=0;right=0;bottom=1;fontColor=#000000;fontSize=13;" parent="V1VXAKcIepDMNvetjRww-14" vertex="1">
                    <mxGeometry y="30" width="180" height="30" as="geometry"/>
                </mxCell>
                <mxCell id="V1VXAKcIepDMNvetjRww-16" value="PK" style="shape=partialRectangle;connectable=0;fillColor=none;top=0;left=0;bottom=0;right=0;fontStyle=1;overflow=hidden;fontColor=#000000;fontSize=13;" parent="V1VXAKcIepDMNvetjRww-15" vertex="1">
                    <mxGeometry width="30" height="30" as="geometry">
                        <mxRectangle width="30" height="30" as="alternateBounds"/>
                    </mxGeometry>
                </mxCell>
                <mxCell id="V1VXAKcIepDMNvetjRww-17" value="cd_Cliente" style="shape=partialRectangle;connectable=0;fillColor=none;top=0;left=0;bottom=0;right=0;align=left;spacingLeft=6;fontStyle=5;overflow=hidden;fontColor=#000000;fontSize=13;" parent="V1VXAKcIepDMNvetjRww-15" vertex="1">
                    <mxGeometry x="30" width="150" height="30" as="geometry">
                        <mxRectangle width="150" height="30" as="alternateBounds"/>
                    </mxGeometry>
                </mxCell>
                <mxCell id="V1VXAKcIepDMNvetjRww-18" value="" style="shape=tableRow;horizontal=0;startSize=0;swimlaneHead=0;swimlaneBody=0;fillColor=none;collapsible=0;dropTarget=0;points=[[0,0.5],[1,0.5]];portConstraint=eastwest;top=0;left=0;right=0;bottom=0;fontColor=#000000;fontSize=13;" parent="V1VXAKcIepDMNvetjRww-14" vertex="1">
                    <mxGeometry y="60" width="180" height="30" as="geometry"/>
                </mxCell>
                <mxCell id="V1VXAKcIepDMNvetjRww-19" value="" style="shape=partialRectangle;connectable=0;fillColor=none;top=0;left=0;bottom=0;right=0;editable=1;overflow=hidden;fontColor=#000000;fontSize=13;" parent="V1VXAKcIepDMNvetjRww-18" vertex="1">
                    <mxGeometry width="30" height="30" as="geometry">
                        <mxRectangle width="30" height="30" as="alternateBounds"/>
                    </mxGeometry>
                </mxCell>
                <mxCell id="V1VXAKcIepDMNvetjRww-20" value="nm_Site" style="shape=partialRectangle;connectable=0;fillColor=none;top=0;left=0;bottom=0;right=0;align=left;spacingLeft=6;overflow=hidden;fontColor=#000000;fontSize=13;" parent="V1VXAKcIepDMNvetjRww-18" vertex="1">
                    <mxGeometry x="30" width="150" height="30" as="geometry">
                        <mxRectangle width="150" height="30" as="alternateBounds"/>
                    </mxGeometry>
                </mxCell>
                <mxCell id="W87k4NDjYQYCP97sbJat-120" value="" style="shape=tableRow;horizontal=0;startSize=0;swimlaneHead=0;swimlaneBody=0;fillColor=none;collapsible=0;dropTarget=0;points=[[0,0.5],[1,0.5]];portConstraint=eastwest;top=0;left=0;right=0;bottom=0;fontColor=#000000;fontSize=13;" parent="V1VXAKcIepDMNvetjRww-14" vertex="1">
                    <mxGeometry y="90" width="180" height="30" as="geometry"/>
                </mxCell>
                <mxCell id="W87k4NDjYQYCP97sbJat-121" value="" style="shape=partialRectangle;connectable=0;fillColor=none;top=0;left=0;bottom=0;right=0;editable=1;overflow=hidden;fontColor=#000000;fontSize=13;" parent="W87k4NDjYQYCP97sbJat-120" vertex="1">
                    <mxGeometry width="30" height="30" as="geometry">
                        <mxRectangle width="30" height="30" as="alternateBounds"/>
                    </mxGeometry>
                </mxCell>
                <mxCell id="W87k4NDjYQYCP97sbJat-122" value="" style="shape=partialRectangle;connectable=0;fillColor=none;top=0;left=0;bottom=0;right=0;align=left;spacingLeft=6;overflow=hidden;fontColor=#000000;fontSize=13;" parent="W87k4NDjYQYCP97sbJat-120" vertex="1">
                    <mxGeometry x="30" width="150" height="30" as="geometry">
                        <mxRectangle width="150" height="30" as="alternateBounds"/>
                    </mxGeometry>
                </mxCell>
                <mxCell id="V1VXAKcIepDMNvetjRww-53" value="Pessoa Juridica" style="shape=table;startSize=30;container=1;collapsible=1;childLayout=tableLayout;fixedRows=1;rowLines=0;fontStyle=1;align=center;resizeLast=1;fontColor=#000000;fontSize=13;" parent="1" vertex="1">
                    <mxGeometry x="20" y="250" width="180" height="190" as="geometry"/>
                </mxCell>
                <mxCell id="V1VXAKcIepDMNvetjRww-57" value="" style="shape=tableRow;horizontal=0;startSize=0;swimlaneHead=0;swimlaneBody=0;fillColor=none;collapsible=0;dropTarget=0;points=[[0,0.5],[1,0.5]];portConstraint=eastwest;top=0;left=0;right=0;bottom=1;fontColor=#000000;fontSize=13;" parent="V1VXAKcIepDMNvetjRww-53" vertex="1">
                    <mxGeometry y="30" width="180" height="30" as="geometry"/>
                </mxCell>
                <mxCell id="V1VXAKcIepDMNvetjRww-58" value="PK,FK" style="shape=partialRectangle;connectable=0;fillColor=none;top=0;left=0;bottom=0;right=0;fontStyle=1;overflow=hidden;fontColor=#000000;fontSize=13;" parent="V1VXAKcIepDMNvetjRww-57" vertex="1">
                    <mxGeometry width="60" height="30" as="geometry">
                        <mxRectangle width="60" height="30" as="alternateBounds"/>
                    </mxGeometry>
                </mxCell>
                <mxCell id="V1VXAKcIepDMNvetjRww-59" value="cd_Cliente" style="shape=partialRectangle;connectable=0;fillColor=none;top=0;left=0;bottom=0;right=0;align=left;spacingLeft=6;fontStyle=5;overflow=hidden;fontColor=#000000;fontSize=13;" parent="V1VXAKcIepDMNvetjRww-57" vertex="1">
                    <mxGeometry x="60" width="120" height="30" as="geometry">
                        <mxRectangle width="120" height="30" as="alternateBounds"/>
                    </mxGeometry>
                </mxCell>
                <mxCell id="V1VXAKcIepDMNvetjRww-60" value="" style="shape=tableRow;horizontal=0;startSize=0;swimlaneHead=0;swimlaneBody=0;fillColor=none;collapsible=0;dropTarget=0;points=[[0,0.5],[1,0.5]];portConstraint=eastwest;top=0;left=0;right=0;bottom=0;fontColor=#000000;fontSize=13;" parent="V1VXAKcIepDMNvetjRww-53" vertex="1">
                    <mxGeometry y="60" width="180" height="30" as="geometry"/>
                </mxCell>
                <mxCell id="V1VXAKcIepDMNvetjRww-61" value="" style="shape=partialRectangle;connectable=0;fillColor=none;top=0;left=0;bottom=0;right=0;editable=1;overflow=hidden;fontColor=#000000;fontSize=13;" parent="V1VXAKcIepDMNvetjRww-60" vertex="1">
                    <mxGeometry width="60" height="30" as="geometry">
                        <mxRectangle width="60" height="30" as="alternateBounds"/>
                    </mxGeometry>
                </mxCell>
                <mxCell id="V1VXAKcIepDMNvetjRww-62" value="nr_RazaoSocial" style="shape=partialRectangle;connectable=0;fillColor=none;top=0;left=0;bottom=0;right=0;align=left;spacingLeft=6;overflow=hidden;fontColor=#000000;fontSize=13;" parent="V1VXAKcIepDMNvetjRww-60" vertex="1">
                    <mxGeometry x="60" width="120" height="30" as="geometry">
                        <mxRectangle width="120" height="30" as="alternateBounds"/>
                    </mxGeometry>
                </mxCell>
                <mxCell id="V1VXAKcIepDMNvetjRww-63" value="" style="shape=tableRow;horizontal=0;startSize=0;swimlaneHead=0;swimlaneBody=0;fillColor=none;collapsible=0;dropTarget=0;points=[[0,0.5],[1,0.5]];portConstraint=eastwest;top=0;left=0;right=0;bottom=0;fontColor=#000000;fontSize=13;" parent="V1VXAKcIepDMNvetjRww-53" vertex="1">
                    <mxGeometry y="90" width="180" height="30" as="geometry"/>
                </mxCell>
                <mxCell id="V1VXAKcIepDMNvetjRww-64" value="" style="shape=partialRectangle;connectable=0;fillColor=none;top=0;left=0;bottom=0;right=0;editable=1;overflow=hidden;fontColor=#000000;fontSize=13;" parent="V1VXAKcIepDMNvetjRww-63" vertex="1">
                    <mxGeometry width="60" height="30" as="geometry">
                        <mxRectangle width="60" height="30" as="alternateBounds"/>
                    </mxGeometry>
                </mxCell>
                <mxCell id="V1VXAKcIepDMNvetjRww-65" value="nm_Fantasia" style="shape=partialRectangle;connectable=0;fillColor=none;top=0;left=0;bottom=0;right=0;align=left;spacingLeft=6;overflow=hidden;fontColor=#000000;fontSize=13;" parent="V1VXAKcIepDMNvetjRww-63" vertex="1">
                    <mxGeometry x="60" width="120" height="30" as="geometry">
                        <mxRectangle width="120" height="30" as="alternateBounds"/>
                    </mxGeometry>
                </mxCell>
                <mxCell id="V1VXAKcIepDMNvetjRww-96" value="" style="shape=tableRow;horizontal=0;startSize=0;swimlaneHead=0;swimlaneBody=0;fillColor=none;collapsible=0;dropTarget=0;points=[[0,0.5],[1,0.5]];portConstraint=eastwest;top=0;left=0;right=0;bottom=0;fontColor=#000000;fontSize=13;" parent="V1VXAKcIepDMNvetjRww-53" vertex="1">
                    <mxGeometry y="120" width="180" height="30" as="geometry"/>
                </mxCell>
                <mxCell id="V1VXAKcIepDMNvetjRww-97" value="" style="shape=partialRectangle;connectable=0;fillColor=none;top=0;left=0;bottom=0;right=0;editable=1;overflow=hidden;fontColor=#000000;fontSize=13;" parent="V1VXAKcIepDMNvetjRww-96" vertex="1">
                    <mxGeometry width="60" height="30" as="geometry">
                        <mxRectangle width="60" height="30" as="alternateBounds"/>
                    </mxGeometry>
                </mxCell>
                <mxCell id="V1VXAKcIepDMNvetjRww-98" value="nr_CNPJ" style="shape=partialRectangle;connectable=0;fillColor=none;top=0;left=0;bottom=0;right=0;align=left;spacingLeft=6;overflow=hidden;fontColor=#000000;fontSize=13;" parent="V1VXAKcIepDMNvetjRww-96" vertex="1">
                    <mxGeometry x="60" width="120" height="30" as="geometry">
                        <mxRectangle width="120" height="30" as="alternateBounds"/>
                    </mxGeometry>
                </mxCell>
                <mxCell id="V1VXAKcIepDMNvetjRww-99" value="" style="shape=tableRow;horizontal=0;startSize=0;swimlaneHead=0;swimlaneBody=0;fillColor=none;collapsible=0;dropTarget=0;points=[[0,0.5],[1,0.5]];portConstraint=eastwest;top=0;left=0;right=0;bottom=0;fontColor=#000000;fontSize=13;" parent="V1VXAKcIepDMNvetjRww-53" vertex="1">
                    <mxGeometry y="150" width="180" height="30" as="geometry"/>
                </mxCell>
                <mxCell id="V1VXAKcIepDMNvetjRww-100" value="" style="shape=partialRectangle;connectable=0;fillColor=none;top=0;left=0;bottom=0;right=0;editable=1;overflow=hidden;fontColor=#000000;fontSize=13;" parent="V1VXAKcIepDMNvetjRww-99" vertex="1">
                    <mxGeometry width="60" height="30" as="geometry">
                        <mxRectangle width="60" height="30" as="alternateBounds"/>
                    </mxGeometry>
                </mxCell>
                <mxCell id="V1VXAKcIepDMNvetjRww-101" value="nr_InscrEstadual" style="shape=partialRectangle;connectable=0;fillColor=none;top=0;left=0;bottom=0;right=0;align=left;spacingLeft=6;overflow=hidden;fontColor=#000000;fontSize=13;" parent="V1VXAKcIepDMNvetjRww-99" vertex="1">
                    <mxGeometry x="60" width="120" height="30" as="geometry">
                        <mxRectangle width="120" height="30" as="alternateBounds"/>
                    </mxGeometry>
                </mxCell>
                <mxCell id="V1VXAKcIepDMNvetjRww-79" value="Pessoa Fisica" style="shape=table;startSize=30;container=1;collapsible=1;childLayout=tableLayout;fixedRows=1;rowLines=0;fontStyle=1;align=center;resizeLast=1;fontColor=#000000;fontSize=13;" parent="1" vertex="1">
                    <mxGeometry x="10" y="505" width="180" height="220" as="geometry"/>
                </mxCell>
                <mxCell id="V1VXAKcIepDMNvetjRww-83" value="" style="shape=tableRow;horizontal=0;startSize=0;swimlaneHead=0;swimlaneBody=0;fillColor=none;collapsible=0;dropTarget=0;points=[[0,0.5],[1,0.5]];portConstraint=eastwest;top=0;left=0;right=0;bottom=1;fontColor=#000000;fontSize=13;" parent="V1VXAKcIepDMNvetjRww-79" vertex="1">
                    <mxGeometry y="30" width="180" height="30" as="geometry"/>
                </mxCell>
                <mxCell id="V1VXAKcIepDMNvetjRww-84" value="PK,FK" style="shape=partialRectangle;connectable=0;fillColor=none;top=0;left=0;bottom=0;right=0;fontStyle=1;overflow=hidden;fontColor=#000000;fontSize=13;" parent="V1VXAKcIepDMNvetjRww-83" vertex="1">
                    <mxGeometry width="60" height="30" as="geometry">
                        <mxRectangle width="60" height="30" as="alternateBounds"/>
                    </mxGeometry>
                </mxCell>
                <mxCell id="V1VXAKcIepDMNvetjRww-85" value="cd_Cliente" style="shape=partialRectangle;connectable=0;fillColor=none;top=0;left=0;bottom=0;right=0;align=left;spacingLeft=6;fontStyle=5;overflow=hidden;fontColor=#000000;fontSize=13;" parent="V1VXAKcIepDMNvetjRww-83" vertex="1">
                    <mxGeometry x="60" width="120" height="30" as="geometry">
                        <mxRectangle width="120" height="30" as="alternateBounds"/>
                    </mxGeometry>
                </mxCell>
                <mxCell id="V1VXAKcIepDMNvetjRww-86" value="" style="shape=tableRow;horizontal=0;startSize=0;swimlaneHead=0;swimlaneBody=0;fillColor=none;collapsible=0;dropTarget=0;points=[[0,0.5],[1,0.5]];portConstraint=eastwest;top=0;left=0;right=0;bottom=0;fontColor=#000000;fontSize=13;" parent="V1VXAKcIepDMNvetjRww-79" vertex="1">
                    <mxGeometry y="60" width="180" height="30" as="geometry"/>
                </mxCell>
                <mxCell id="V1VXAKcIepDMNvetjRww-87" value="" style="shape=partialRectangle;connectable=0;fillColor=none;top=0;left=0;bottom=0;right=0;editable=1;overflow=hidden;fontColor=#000000;fontSize=13;" parent="V1VXAKcIepDMNvetjRww-86" vertex="1">
                    <mxGeometry width="60" height="30" as="geometry">
                        <mxRectangle width="60" height="30" as="alternateBounds"/>
                    </mxGeometry>
                </mxCell>
                <mxCell id="V1VXAKcIepDMNvetjRww-88" value="nm_PessoaFisia" style="shape=partialRectangle;connectable=0;fillColor=none;top=0;left=0;bottom=0;right=0;align=left;spacingLeft=6;overflow=hidden;fontColor=#000000;fontSize=13;" parent="V1VXAKcIepDMNvetjRww-86" vertex="1">
                    <mxGeometry x="60" width="120" height="30" as="geometry">
                        <mxRectangle width="120" height="30" as="alternateBounds"/>
                    </mxGeometry>
                </mxCell>
                <mxCell id="V1VXAKcIepDMNvetjRww-89" value="" style="shape=tableRow;horizontal=0;startSize=0;swimlaneHead=0;swimlaneBody=0;fillColor=none;collapsible=0;dropTarget=0;points=[[0,0.5],[1,0.5]];portConstraint=eastwest;top=0;left=0;right=0;bottom=0;fontColor=#000000;fontSize=13;" parent="V1VXAKcIepDMNvetjRww-79" vertex="1">
                    <mxGeometry y="90" width="180" height="30" as="geometry"/>
                </mxCell>
                <mxCell id="V1VXAKcIepDMNvetjRww-90" value="" style="shape=partialRectangle;connectable=0;fillColor=none;top=0;left=0;bottom=0;right=0;editable=1;overflow=hidden;fontColor=#000000;fontSize=13;" parent="V1VXAKcIepDMNvetjRww-89" vertex="1">
                    <mxGeometry width="60" height="30" as="geometry">
                        <mxRectangle width="60" height="30" as="alternateBounds"/>
                    </mxGeometry>
                </mxCell>
                <mxCell id="V1VXAKcIepDMNvetjRww-91" value="nr_RG" style="shape=partialRectangle;connectable=0;fillColor=none;top=0;left=0;bottom=0;right=0;align=left;spacingLeft=6;overflow=hidden;fontColor=#000000;fontSize=13;" parent="V1VXAKcIepDMNvetjRww-89" vertex="1">
                    <mxGeometry x="60" width="120" height="30" as="geometry">
                        <mxRectangle width="120" height="30" as="alternateBounds"/>
                    </mxGeometry>
                </mxCell>
                <mxCell id="V1VXAKcIepDMNvetjRww-105" value="" style="shape=tableRow;horizontal=0;startSize=0;swimlaneHead=0;swimlaneBody=0;fillColor=none;collapsible=0;dropTarget=0;points=[[0,0.5],[1,0.5]];portConstraint=eastwest;top=0;left=0;right=0;bottom=0;fontColor=#000000;fontSize=13;" parent="V1VXAKcIepDMNvetjRww-79" vertex="1">
                    <mxGeometry y="120" width="180" height="30" as="geometry"/>
                </mxCell>
                <mxCell id="V1VXAKcIepDMNvetjRww-106" value="" style="shape=partialRectangle;connectable=0;fillColor=none;top=0;left=0;bottom=0;right=0;editable=1;overflow=hidden;fontColor=#000000;fontSize=13;" parent="V1VXAKcIepDMNvetjRww-105" vertex="1">
                    <mxGeometry width="60" height="30" as="geometry">
                        <mxRectangle width="60" height="30" as="alternateBounds"/>
                    </mxGeometry>
                </mxCell>
                <mxCell id="V1VXAKcIepDMNvetjRww-107" value="nr_CPF" style="shape=partialRectangle;connectable=0;fillColor=none;top=0;left=0;bottom=0;right=0;align=left;spacingLeft=6;overflow=hidden;fontColor=#000000;fontSize=13;" parent="V1VXAKcIepDMNvetjRww-105" vertex="1">
                    <mxGeometry x="60" width="120" height="30" as="geometry">
                        <mxRectangle width="120" height="30" as="alternateBounds"/>
                    </mxGeometry>
                </mxCell>
                <mxCell id="V1VXAKcIepDMNvetjRww-108" value="" style="shape=tableRow;horizontal=0;startSize=0;swimlaneHead=0;swimlaneBody=0;fillColor=none;collapsible=0;dropTarget=0;points=[[0,0.5],[1,0.5]];portConstraint=eastwest;top=0;left=0;right=0;bottom=0;fontColor=#000000;fontSize=13;" parent="V1VXAKcIepDMNvetjRww-79" vertex="1">
                    <mxGeometry y="150" width="180" height="30" as="geometry"/>
                </mxCell>
                <mxCell id="V1VXAKcIepDMNvetjRww-109" value="" style="shape=partialRectangle;connectable=0;fillColor=none;top=0;left=0;bottom=0;right=0;editable=1;overflow=hidden;fontColor=#000000;fontSize=13;" parent="V1VXAKcIepDMNvetjRww-108" vertex="1">
                    <mxGeometry width="60" height="30" as="geometry">
                        <mxRectangle width="60" height="30" as="alternateBounds"/>
                    </mxGeometry>
                </mxCell>
                <mxCell id="V1VXAKcIepDMNvetjRww-110" value="dt_Nasc" style="shape=partialRectangle;connectable=0;fillColor=none;top=0;left=0;bottom=0;right=0;align=left;spacingLeft=6;overflow=hidden;fontColor=#000000;fontSize=13;" parent="V1VXAKcIepDMNvetjRww-108" vertex="1">
                    <mxGeometry x="60" width="120" height="30" as="geometry">
                        <mxRectangle width="120" height="30" as="alternateBounds"/>
                    </mxGeometry>
                </mxCell>
                <mxCell id="V1VXAKcIepDMNvetjRww-111" value="" style="shape=tableRow;horizontal=0;startSize=0;swimlaneHead=0;swimlaneBody=0;fillColor=none;collapsible=0;dropTarget=0;points=[[0,0.5],[1,0.5]];portConstraint=eastwest;top=0;left=0;right=0;bottom=0;fontColor=#000000;fontSize=13;" parent="V1VXAKcIepDMNvetjRww-79" vertex="1">
                    <mxGeometry y="180" width="180" height="30" as="geometry"/>
                </mxCell>
                <mxCell id="V1VXAKcIepDMNvetjRww-112" value="FK" style="shape=partialRectangle;connectable=0;fillColor=none;top=0;left=0;bottom=0;right=0;fontStyle=0;overflow=hidden;fontColor=#000000;fontSize=13;" parent="V1VXAKcIepDMNvetjRww-111" vertex="1">
                    <mxGeometry width="60" height="30" as="geometry">
                        <mxRectangle width="60" height="30" as="alternateBounds"/>
                    </mxGeometry>
                </mxCell>
                <mxCell id="V1VXAKcIepDMNvetjRww-113" value="cd_Genero" style="shape=partialRectangle;connectable=0;fillColor=none;top=0;left=0;bottom=0;right=0;align=left;spacingLeft=6;fontStyle=0;overflow=hidden;fontColor=#000000;fontSize=13;" parent="V1VXAKcIepDMNvetjRww-111" vertex="1">
                    <mxGeometry x="60" width="120" height="30" as="geometry">
                        <mxRectangle width="120" height="30" as="alternateBounds"/>
                    </mxGeometry>
                </mxCell>
                <mxCell id="V1VXAKcIepDMNvetjRww-94" value="" style="edgeStyle=entityRelationEdgeStyle;fontSize=13;html=1;endArrow=ERmandOne;startArrow=ERzeroToOne;rounded=0;entryX=0;entryY=0.5;entryDx=0;entryDy=0;exitX=1;exitY=0.5;exitDx=0;exitDy=0;startFill=0;fontColor=#000000;" parent="1" source="V1VXAKcIepDMNvetjRww-108" target="W87k4NDjYQYCP97sbJat-120" edge="1">
                    <mxGeometry width="100" height="100" relative="1" as="geometry">
                        <mxPoint x="240" y="530" as="sourcePoint"/>
                        <mxPoint x="450" y="510" as="targetPoint"/>
                    </mxGeometry>
                </mxCell>
                <mxCell id="V1VXAKcIepDMNvetjRww-95" value="" style="edgeStyle=entityRelationEdgeStyle;fontSize=13;html=1;endArrow=ERmandOne;startArrow=ERzeroToOne;rounded=0;entryX=0;entryY=0.5;entryDx=0;entryDy=0;exitX=1;exitY=0.5;exitDx=0;exitDy=0;startFill=0;fontColor=#000000;" parent="1" source="V1VXAKcIepDMNvetjRww-99" target="V1VXAKcIepDMNvetjRww-18" edge="1">
                    <mxGeometry width="100" height="100" relative="1" as="geometry">
                        <mxPoint x="240" y="440" as="sourcePoint"/>
                        <mxPoint x="400" y="370" as="targetPoint"/>
                    </mxGeometry>
                </mxCell>
                <mxCell id="V1VXAKcIepDMNvetjRww-114" value="Genero" style="shape=table;startSize=30;container=1;collapsible=1;childLayout=tableLayout;fixedRows=1;rowLines=0;fontStyle=1;align=center;resizeLast=1;fontColor=#000000;fontSize=13;" parent="1" vertex="1">
                    <mxGeometry y="790" width="180" height="100" as="geometry"/>
                </mxCell>
                <mxCell id="V1VXAKcIepDMNvetjRww-115" value="" style="shape=tableRow;horizontal=0;startSize=0;swimlaneHead=0;swimlaneBody=0;fillColor=none;collapsible=0;dropTarget=0;points=[[0,0.5],[1,0.5]];portConstraint=eastwest;top=0;left=0;right=0;bottom=1;fontColor=#000000;fontSize=13;" parent="V1VXAKcIepDMNvetjRww-114" vertex="1">
                    <mxGeometry y="30" width="180" height="30" as="geometry"/>
                </mxCell>
                <mxCell id="V1VXAKcIepDMNvetjRww-116" value="PK" style="shape=partialRectangle;connectable=0;fillColor=none;top=0;left=0;bottom=0;right=0;fontStyle=1;overflow=hidden;fontColor=#000000;fontSize=13;" parent="V1VXAKcIepDMNvetjRww-115" vertex="1">
                    <mxGeometry width="30" height="30" as="geometry">
                        <mxRectangle width="30" height="30" as="alternateBounds"/>
                    </mxGeometry>
                </mxCell>
                <mxCell id="V1VXAKcIepDMNvetjRww-117" value="cd_Genero" style="shape=partialRectangle;connectable=0;fillColor=none;top=0;left=0;bottom=0;right=0;align=left;spacingLeft=6;fontStyle=5;overflow=hidden;fontColor=#000000;fontSize=13;" parent="V1VXAKcIepDMNvetjRww-115" vertex="1">
                    <mxGeometry x="30" width="150" height="30" as="geometry">
                        <mxRectangle width="150" height="30" as="alternateBounds"/>
                    </mxGeometry>
                </mxCell>
                <mxCell id="V1VXAKcIepDMNvetjRww-118" value="" style="shape=tableRow;horizontal=0;startSize=0;swimlaneHead=0;swimlaneBody=0;fillColor=none;collapsible=0;dropTarget=0;points=[[0,0.5],[1,0.5]];portConstraint=eastwest;top=0;left=0;right=0;bottom=0;fontColor=#000000;fontSize=13;" parent="V1VXAKcIepDMNvetjRww-114" vertex="1">
                    <mxGeometry y="60" width="180" height="30" as="geometry"/>
                </mxCell>
                <mxCell id="V1VXAKcIepDMNvetjRww-119" value="" style="shape=partialRectangle;connectable=0;fillColor=none;top=0;left=0;bottom=0;right=0;editable=1;overflow=hidden;fontColor=#000000;fontSize=13;" parent="V1VXAKcIepDMNvetjRww-118" vertex="1">
                    <mxGeometry width="30" height="30" as="geometry">
                        <mxRectangle width="30" height="30" as="alternateBounds"/>
                    </mxGeometry>
                </mxCell>
                <mxCell id="V1VXAKcIepDMNvetjRww-120" value="abr_Genero" style="shape=partialRectangle;connectable=0;fillColor=none;top=0;left=0;bottom=0;right=0;align=left;spacingLeft=6;overflow=hidden;fontColor=#000000;fontSize=13;" parent="V1VXAKcIepDMNvetjRww-118" vertex="1">
                    <mxGeometry x="30" width="150" height="30" as="geometry">
                        <mxRectangle width="150" height="30" as="alternateBounds"/>
                    </mxGeometry>
                </mxCell>
                <mxCell id="V1VXAKcIepDMNvetjRww-127" value="" style="edgeStyle=entityRelationEdgeStyle;fontSize=13;html=1;endArrow=ERzeroToMany;startArrow=ERmandOne;rounded=0;endFill=0;strokeColor=default;exitX=1.001;exitY=0.158;exitDx=0;exitDy=0;exitPerimeter=0;fontColor=#000000;" parent="1" source="V1VXAKcIepDMNvetjRww-114" target="V1VXAKcIepDMNvetjRww-111" edge="1">
                    <mxGeometry width="100" height="100" relative="1" as="geometry">
                        <mxPoint x="-160" y="590" as="sourcePoint"/>
                        <mxPoint x="360" y="1070" as="targetPoint"/>
                    </mxGeometry>
                </mxCell>
                <mxCell id="V1VXAKcIepDMNvetjRww-134" value="" style="edgeStyle=entityRelationEdgeStyle;fontSize=13;html=1;endArrow=ERzeroToMany;startArrow=ERmandOne;rounded=0;entryX=0;entryY=0.5;entryDx=0;entryDy=0;exitX=1;exitY=0.5;exitDx=0;exitDy=0;endFill=0;fontColor=#000000;" parent="1" source="V1VXAKcIepDMNvetjRww-115" target="V1VXAKcIepDMNvetjRww-131" edge="1">
                    <mxGeometry width="100" height="100" relative="1" as="geometry">
                        <mxPoint x="300" y="845" as="sourcePoint"/>
                        <mxPoint x="220" y="695" as="targetPoint"/>
                    </mxGeometry>
                </mxCell>
                <mxCell id="V1VXAKcIepDMNvetjRww-135" value="TipoServicoEmpregado" style="shape=table;startSize=30;container=1;collapsible=1;childLayout=tableLayout;fixedRows=1;rowLines=0;fontStyle=1;align=center;resizeLast=1;fontColor=#000000;fontSize=13;" parent="1" vertex="1">
                    <mxGeometry x="540" y="930" width="220" height="175" as="geometry"/>
                </mxCell>
                <mxCell id="V1VXAKcIepDMNvetjRww-136" value="" style="shape=tableRow;horizontal=0;startSize=0;swimlaneHead=0;swimlaneBody=0;fillColor=none;collapsible=0;dropTarget=0;points=[[0,0.5],[1,0.5]];portConstraint=eastwest;top=0;left=0;right=0;bottom=0;fontColor=#000000;fontSize=13;" parent="V1VXAKcIepDMNvetjRww-135" vertex="1">
                    <mxGeometry y="30" width="220" height="30" as="geometry"/>
                </mxCell>
                <mxCell id="V1VXAKcIepDMNvetjRww-137" value="PK,FK" style="shape=partialRectangle;connectable=0;fillColor=none;top=0;left=0;bottom=0;right=0;fontStyle=1;overflow=hidden;fontColor=#000000;fontSize=13;" parent="V1VXAKcIepDMNvetjRww-136" vertex="1">
                    <mxGeometry width="60" height="30" as="geometry">
                        <mxRectangle width="60" height="30" as="alternateBounds"/>
                    </mxGeometry>
                </mxCell>
                <mxCell id="V1VXAKcIepDMNvetjRww-138" value="cd_TipoServico" style="shape=partialRectangle;connectable=0;fillColor=none;top=0;left=0;bottom=0;right=0;align=left;spacingLeft=6;fontStyle=5;overflow=hidden;fontColor=#000000;fontSize=13;" parent="V1VXAKcIepDMNvetjRww-136" vertex="1">
                    <mxGeometry x="60" width="160" height="30" as="geometry">
                        <mxRectangle width="160" height="30" as="alternateBounds"/>
                    </mxGeometry>
                </mxCell>
                <mxCell id="V1VXAKcIepDMNvetjRww-171" value="" style="shape=tableRow;horizontal=0;startSize=0;swimlaneHead=0;swimlaneBody=0;fillColor=none;collapsible=0;dropTarget=0;points=[[0,0.5],[1,0.5]];portConstraint=eastwest;top=0;left=0;right=0;bottom=0;fontColor=#000000;fontSize=13;" parent="V1VXAKcIepDMNvetjRww-135" vertex="1">
                    <mxGeometry y="60" width="220" height="30" as="geometry"/>
                </mxCell>
                <mxCell id="V1VXAKcIepDMNvetjRww-172" value="PK,FK" style="shape=partialRectangle;connectable=0;fillColor=none;top=0;left=0;bottom=0;right=0;editable=1;overflow=hidden;fontStyle=1;fontColor=#000000;fontSize=13;" parent="V1VXAKcIepDMNvetjRww-171" vertex="1">
                    <mxGeometry width="60" height="30" as="geometry">
                        <mxRectangle width="60" height="30" as="alternateBounds"/>
                    </mxGeometry>
                </mxCell>
                <mxCell id="V1VXAKcIepDMNvetjRww-173" value="cd_Empregado" style="shape=partialRectangle;connectable=0;fillColor=none;top=0;left=0;bottom=0;right=0;align=left;spacingLeft=6;overflow=hidden;fontStyle=5;fontColor=#000000;fontSize=13;" parent="V1VXAKcIepDMNvetjRww-171" vertex="1">
                    <mxGeometry x="60" width="160" height="30" as="geometry">
                        <mxRectangle width="160" height="30" as="alternateBounds"/>
                    </mxGeometry>
                </mxCell>
                <mxCell id="V1VXAKcIepDMNvetjRww-139" value="" style="shape=tableRow;horizontal=0;startSize=0;swimlaneHead=0;swimlaneBody=0;fillColor=none;collapsible=0;dropTarget=0;points=[[0,0.5],[1,0.5]];portConstraint=eastwest;top=0;left=0;right=0;bottom=1;fontColor=#000000;fontSize=13;" parent="V1VXAKcIepDMNvetjRww-135" vertex="1">
                    <mxGeometry y="90" width="220" height="30" as="geometry"/>
                </mxCell>
                <mxCell id="V1VXAKcIepDMNvetjRww-140" value="PK" style="shape=partialRectangle;connectable=0;fillColor=none;top=0;left=0;bottom=0;right=0;fontStyle=1;overflow=hidden;fontColor=#000000;fontSize=13;" parent="V1VXAKcIepDMNvetjRww-139" vertex="1">
                    <mxGeometry width="60" height="30" as="geometry">
                        <mxRectangle width="60" height="30" as="alternateBounds"/>
                    </mxGeometry>
                </mxCell>
                <mxCell id="V1VXAKcIepDMNvetjRww-141" value="TipoServicoEmpregado" style="shape=partialRectangle;connectable=0;fillColor=none;top=0;left=0;bottom=0;right=0;align=left;spacingLeft=6;fontStyle=5;overflow=hidden;fontColor=#000000;fontSize=13;" parent="V1VXAKcIepDMNvetjRww-139" vertex="1">
                    <mxGeometry x="60" width="160" height="30" as="geometry">
                        <mxRectangle width="160" height="30" as="alternateBounds"/>
                    </mxGeometry>
                </mxCell>
                <mxCell id="V1VXAKcIepDMNvetjRww-142" value="" style="shape=tableRow;horizontal=0;startSize=0;swimlaneHead=0;swimlaneBody=0;fillColor=none;collapsible=0;dropTarget=0;points=[[0,0.5],[1,0.5]];portConstraint=eastwest;top=0;left=0;right=0;bottom=0;fontColor=#000000;fontSize=13;" parent="V1VXAKcIepDMNvetjRww-135" vertex="1">
                    <mxGeometry y="120" width="220" height="30" as="geometry"/>
                </mxCell>
                <mxCell id="V1VXAKcIepDMNvetjRww-143" value="" style="shape=partialRectangle;connectable=0;fillColor=none;top=0;left=0;bottom=0;right=0;editable=1;overflow=hidden;fontColor=#000000;fontSize=13;" parent="V1VXAKcIepDMNvetjRww-142" vertex="1">
                    <mxGeometry width="60" height="30" as="geometry">
                        <mxRectangle width="60" height="30" as="alternateBounds"/>
                    </mxGeometry>
                </mxCell>
                <mxCell id="V1VXAKcIepDMNvetjRww-144" value="dt_Habilitacao" style="shape=partialRectangle;connectable=0;fillColor=none;top=0;left=0;bottom=0;right=0;align=left;spacingLeft=6;overflow=hidden;fontColor=#000000;fontSize=13;" parent="V1VXAKcIepDMNvetjRww-142" vertex="1">
                    <mxGeometry x="60" width="160" height="30" as="geometry">
                        <mxRectangle width="160" height="30" as="alternateBounds"/>
                    </mxGeometry>
                </mxCell>
                <mxCell id="V1VXAKcIepDMNvetjRww-148" value="TipoServico" style="shape=table;startSize=30;container=1;collapsible=1;childLayout=tableLayout;fixedRows=1;rowLines=0;fontStyle=1;align=center;resizeLast=1;fontColor=#000000;fontSize=13;" parent="1" vertex="1">
                    <mxGeometry x="835" y="960" width="180" height="100" as="geometry"/>
                </mxCell>
                <mxCell id="V1VXAKcIepDMNvetjRww-149" value="" style="shape=tableRow;horizontal=0;startSize=0;swimlaneHead=0;swimlaneBody=0;fillColor=none;collapsible=0;dropTarget=0;points=[[0,0.5],[1,0.5]];portConstraint=eastwest;top=0;left=0;right=0;bottom=1;fontColor=#000000;fontSize=13;" parent="V1VXAKcIepDMNvetjRww-148" vertex="1">
                    <mxGeometry y="30" width="180" height="30" as="geometry"/>
                </mxCell>
                <mxCell id="V1VXAKcIepDMNvetjRww-150" value="PK" style="shape=partialRectangle;connectable=0;fillColor=none;top=0;left=0;bottom=0;right=0;fontStyle=1;overflow=hidden;fontColor=#000000;fontSize=13;" parent="V1VXAKcIepDMNvetjRww-149" vertex="1">
                    <mxGeometry width="30" height="30" as="geometry">
                        <mxRectangle width="30" height="30" as="alternateBounds"/>
                    </mxGeometry>
                </mxCell>
                <mxCell id="V1VXAKcIepDMNvetjRww-151" value="cd_TipoServico" style="shape=partialRectangle;connectable=0;fillColor=none;top=0;left=0;bottom=0;right=0;align=left;spacingLeft=6;fontStyle=5;overflow=hidden;fontColor=#000000;fontSize=13;" parent="V1VXAKcIepDMNvetjRww-149" vertex="1">
                    <mxGeometry x="30" width="150" height="30" as="geometry">
                        <mxRectangle width="150" height="30" as="alternateBounds"/>
                    </mxGeometry>
                </mxCell>
                <mxCell id="V1VXAKcIepDMNvetjRww-152" value="" style="shape=tableRow;horizontal=0;startSize=0;swimlaneHead=0;swimlaneBody=0;fillColor=none;collapsible=0;dropTarget=0;points=[[0,0.5],[1,0.5]];portConstraint=eastwest;top=0;left=0;right=0;bottom=0;fontColor=#000000;fontSize=13;" parent="V1VXAKcIepDMNvetjRww-148" vertex="1">
                    <mxGeometry y="60" width="180" height="30" as="geometry"/>
                </mxCell>
                <mxCell id="V1VXAKcIepDMNvetjRww-153" value="" style="shape=partialRectangle;connectable=0;fillColor=none;top=0;left=0;bottom=0;right=0;editable=1;overflow=hidden;fontColor=#000000;fontSize=13;" parent="V1VXAKcIepDMNvetjRww-152" vertex="1">
                    <mxGeometry width="30" height="30" as="geometry">
                        <mxRectangle width="30" height="30" as="alternateBounds"/>
                    </mxGeometry>
                </mxCell>
                <mxCell id="V1VXAKcIepDMNvetjRww-154" value="ds_TipoServico" style="shape=partialRectangle;connectable=0;fillColor=none;top=0;left=0;bottom=0;right=0;align=left;spacingLeft=6;overflow=hidden;fontColor=#000000;fontSize=13;" parent="V1VXAKcIepDMNvetjRww-152" vertex="1">
                    <mxGeometry x="30" width="150" height="30" as="geometry">
                        <mxRectangle width="150" height="30" as="alternateBounds"/>
                    </mxGeometry>
                </mxCell>
                <mxCell id="V1VXAKcIepDMNvetjRww-174" value="" style="edgeStyle=entityRelationEdgeStyle;fontSize=13;html=1;endArrow=ERzeroToMany;startArrow=ERmandOne;rounded=0;entryX=0;entryY=0.5;entryDx=0;entryDy=0;exitX=1;exitY=0.5;exitDx=0;exitDy=0;endFill=0;fontColor=#000000;" parent="1" source="V1VXAKcIepDMNvetjRww-8" target="V1VXAKcIepDMNvetjRww-171" edge="1">
                    <mxGeometry width="100" height="100" relative="1" as="geometry">
                        <mxPoint x="480" y="925" as="sourcePoint"/>
                        <mxPoint x="550" y="805" as="targetPoint"/>
                    </mxGeometry>
                </mxCell>
                <mxCell id="V1VXAKcIepDMNvetjRww-175" value="" style="edgeStyle=entityRelationEdgeStyle;fontSize=13;html=1;endArrow=ERzeroToMany;startArrow=ERmandOne;rounded=0;exitX=0;exitY=0.5;exitDx=0;exitDy=0;endFill=0;fontColor=#000000;" parent="1" source="V1VXAKcIepDMNvetjRww-149" target="V1VXAKcIepDMNvetjRww-136" edge="1">
                    <mxGeometry width="100" height="100" relative="1" as="geometry">
                        <mxPoint x="500" y="1045" as="sourcePoint"/>
                        <mxPoint x="570" y="925" as="targetPoint"/>
                    </mxGeometry>
                </mxCell>
                <mxCell id="V1VXAKcIepDMNvetjRww-176" value="OrdemServico" style="shape=table;startSize=30;container=1;collapsible=1;childLayout=tableLayout;fixedRows=1;rowLines=0;fontStyle=1;align=center;resizeLast=1;fontColor=#000000;fontSize=13;" parent="1" vertex="1">
                    <mxGeometry x="1000" y="410" width="180" height="160" as="geometry"/>
                </mxCell>
                <mxCell id="V1VXAKcIepDMNvetjRww-177" value="" style="shape=tableRow;horizontal=0;startSize=0;swimlaneHead=0;swimlaneBody=0;fillColor=none;collapsible=0;dropTarget=0;points=[[0,0.5],[1,0.5]];portConstraint=eastwest;top=0;left=0;right=0;bottom=1;fontColor=#000000;fontSize=13;" parent="V1VXAKcIepDMNvetjRww-176" vertex="1">
                    <mxGeometry y="30" width="180" height="30" as="geometry"/>
                </mxCell>
                <mxCell id="V1VXAKcIepDMNvetjRww-178" value="PK" style="shape=partialRectangle;connectable=0;fillColor=none;top=0;left=0;bottom=0;right=0;fontStyle=1;overflow=hidden;fontColor=#000000;fontSize=13;" parent="V1VXAKcIepDMNvetjRww-177" vertex="1">
                    <mxGeometry width="30" height="30" as="geometry">
                        <mxRectangle width="30" height="30" as="alternateBounds"/>
                    </mxGeometry>
                </mxCell>
                <mxCell id="V1VXAKcIepDMNvetjRww-179" value="cd_OrdemServico" style="shape=partialRectangle;connectable=0;fillColor=none;top=0;left=0;bottom=0;right=0;align=left;spacingLeft=6;fontStyle=5;overflow=hidden;fontColor=#000000;fontSize=13;" parent="V1VXAKcIepDMNvetjRww-177" vertex="1">
                    <mxGeometry x="30" width="150" height="30" as="geometry">
                        <mxRectangle width="150" height="30" as="alternateBounds"/>
                    </mxGeometry>
                </mxCell>
                <mxCell id="V1VXAKcIepDMNvetjRww-180" value="" style="shape=tableRow;horizontal=0;startSize=0;swimlaneHead=0;swimlaneBody=0;fillColor=none;collapsible=0;dropTarget=0;points=[[0,0.5],[1,0.5]];portConstraint=eastwest;top=0;left=0;right=0;bottom=0;fontColor=#000000;fontSize=13;" parent="V1VXAKcIepDMNvetjRww-176" vertex="1">
                    <mxGeometry y="60" width="180" height="30" as="geometry"/>
                </mxCell>
                <mxCell id="V1VXAKcIepDMNvetjRww-181" value="" style="shape=partialRectangle;connectable=0;fillColor=none;top=0;left=0;bottom=0;right=0;editable=1;overflow=hidden;fontColor=#000000;fontSize=13;" parent="V1VXAKcIepDMNvetjRww-180" vertex="1">
                    <mxGeometry width="30" height="30" as="geometry">
                        <mxRectangle width="30" height="30" as="alternateBounds"/>
                    </mxGeometry>
                </mxCell>
                <mxCell id="V1VXAKcIepDMNvetjRww-182" value="ds_OrdemServico" style="shape=partialRectangle;connectable=0;fillColor=none;top=0;left=0;bottom=0;right=0;align=left;spacingLeft=6;overflow=hidden;fontColor=#000000;fontSize=13;" parent="V1VXAKcIepDMNvetjRww-180" vertex="1">
                    <mxGeometry x="30" width="150" height="30" as="geometry">
                        <mxRectangle width="150" height="30" as="alternateBounds"/>
                    </mxGeometry>
                </mxCell>
                <mxCell id="V1VXAKcIepDMNvetjRww-186" value="" style="shape=tableRow;horizontal=0;startSize=0;swimlaneHead=0;swimlaneBody=0;fillColor=none;collapsible=0;dropTarget=0;points=[[0,0.5],[1,0.5]];portConstraint=eastwest;top=0;left=0;right=0;bottom=0;fontColor=#000000;fontSize=13;" parent="V1VXAKcIepDMNvetjRww-176" vertex="1">
                    <mxGeometry y="90" width="180" height="30" as="geometry"/>
                </mxCell>
                <mxCell id="V1VXAKcIepDMNvetjRww-187" value="" style="shape=partialRectangle;connectable=0;fillColor=none;top=0;left=0;bottom=0;right=0;editable=1;overflow=hidden;fontColor=#000000;fontSize=13;" parent="V1VXAKcIepDMNvetjRww-186" vertex="1">
                    <mxGeometry width="30" height="30" as="geometry">
                        <mxRectangle width="30" height="30" as="alternateBounds"/>
                    </mxGeometry>
                </mxCell>
                <mxCell id="V1VXAKcIepDMNvetjRww-188" value="" style="shape=partialRectangle;connectable=0;fillColor=none;top=0;left=0;bottom=0;right=0;align=left;spacingLeft=6;overflow=hidden;fontColor=#000000;fontSize=13;" parent="V1VXAKcIepDMNvetjRww-186" vertex="1">
                    <mxGeometry x="30" width="150" height="30" as="geometry">
                        <mxRectangle width="150" height="30" as="alternateBounds"/>
                    </mxGeometry>
                </mxCell>
                <mxCell id="V1VXAKcIepDMNvetjRww-189" value="" style="shape=tableRow;horizontal=0;startSize=0;swimlaneHead=0;swimlaneBody=0;fillColor=none;collapsible=0;dropTarget=0;points=[[0,0.5],[1,0.5]];portConstraint=eastwest;top=0;left=0;right=0;bottom=0;fontColor=#000000;fontSize=13;" parent="V1VXAKcIepDMNvetjRww-176" vertex="1">
                    <mxGeometry y="120" width="180" height="30" as="geometry"/>
                </mxCell>
                <mxCell id="V1VXAKcIepDMNvetjRww-190" value="FK" style="shape=partialRectangle;connectable=0;fillColor=none;top=0;left=0;bottom=0;right=0;fontStyle=0;overflow=hidden;fontColor=#000000;fontSize=13;" parent="V1VXAKcIepDMNvetjRww-189" vertex="1">
                    <mxGeometry width="30" height="30" as="geometry">
                        <mxRectangle width="30" height="30" as="alternateBounds"/>
                    </mxGeometry>
                </mxCell>
                <mxCell id="V1VXAKcIepDMNvetjRww-191" value="cd_Cliente" style="shape=partialRectangle;connectable=0;fillColor=none;top=0;left=0;bottom=0;right=0;align=left;spacingLeft=6;fontStyle=0;overflow=hidden;fontColor=#000000;fontSize=13;" parent="V1VXAKcIepDMNvetjRww-189" vertex="1">
                    <mxGeometry x="30" width="150" height="30" as="geometry">
                        <mxRectangle width="150" height="30" as="alternateBounds"/>
                    </mxGeometry>
                </mxCell>
                <mxCell id="V1VXAKcIepDMNvetjRww-192" value="" style="edgeStyle=entityRelationEdgeStyle;fontSize=13;html=1;endArrow=ERzeroToMany;startArrow=ERmandOne;rounded=0;entryX=0;entryY=0.5;entryDx=0;entryDy=0;endFill=0;fontColor=#000000;" parent="1" source="W87k4NDjYQYCP97sbJat-120" target="V1VXAKcIepDMNvetjRww-189" edge="1">
                    <mxGeometry width="100" height="100" relative="1" as="geometry">
                        <mxPoint x="510" y="560" as="sourcePoint"/>
                        <mxPoint x="580" y="440" as="targetPoint"/>
                    </mxGeometry>
                </mxCell>
                <mxCell id="V1VXAKcIepDMNvetjRww-193" value="OrdemServicoItens" style="shape=table;startSize=30;container=1;collapsible=1;childLayout=tableLayout;fixedRows=1;rowLines=0;fontStyle=1;align=center;resizeLast=1;fontColor=#000000;fontSize=13;" parent="1" vertex="1">
                    <mxGeometry x="960" y="680" width="220" height="190" as="geometry"/>
                </mxCell>
                <mxCell id="V1VXAKcIepDMNvetjRww-194" value="" style="shape=tableRow;horizontal=0;startSize=0;swimlaneHead=0;swimlaneBody=0;fillColor=none;collapsible=0;dropTarget=0;points=[[0,0.5],[1,0.5]];portConstraint=eastwest;top=0;left=0;right=0;bottom=0;fontColor=#000000;fontSize=13;" parent="V1VXAKcIepDMNvetjRww-193" vertex="1">
                    <mxGeometry y="30" width="220" height="30" as="geometry"/>
                </mxCell>
                <mxCell id="V1VXAKcIepDMNvetjRww-195" value="PK,FK" style="shape=partialRectangle;connectable=0;fillColor=none;top=0;left=0;bottom=0;right=0;fontStyle=1;overflow=hidden;fontColor=#000000;fontSize=13;" parent="V1VXAKcIepDMNvetjRww-194" vertex="1">
                    <mxGeometry width="60" height="30" as="geometry">
                        <mxRectangle width="60" height="30" as="alternateBounds"/>
                    </mxGeometry>
                </mxCell>
                <mxCell id="V1VXAKcIepDMNvetjRww-196" value="cd_OrdemServico" style="shape=partialRectangle;connectable=0;fillColor=none;top=0;left=0;bottom=0;right=0;align=left;spacingLeft=6;fontStyle=5;overflow=hidden;fontColor=#000000;fontSize=13;" parent="V1VXAKcIepDMNvetjRww-194" vertex="1">
                    <mxGeometry x="60" width="160" height="30" as="geometry">
                        <mxRectangle width="160" height="30" as="alternateBounds"/>
                    </mxGeometry>
                </mxCell>
                <mxCell id="W87k4NDjYQYCP97sbJat-133" value="" style="shape=tableRow;horizontal=0;startSize=0;swimlaneHead=0;swimlaneBody=0;fillColor=none;collapsible=0;dropTarget=0;points=[[0,0.5],[1,0.5]];portConstraint=eastwest;top=0;left=0;right=0;bottom=0;fontColor=#000000;fontSize=13;" parent="V1VXAKcIepDMNvetjRww-193" vertex="1">
                    <mxGeometry y="60" width="220" height="30" as="geometry"/>
                </mxCell>
                <mxCell id="W87k4NDjYQYCP97sbJat-134" value="PK,FK" style="shape=partialRectangle;connectable=0;fillColor=none;top=0;left=0;bottom=0;right=0;editable=1;overflow=hidden;fontStyle=1;fontColor=#000000;fontSize=13;" parent="W87k4NDjYQYCP97sbJat-133" vertex="1">
                    <mxGeometry width="60" height="30" as="geometry">
                        <mxRectangle width="60" height="30" as="alternateBounds"/>
                    </mxGeometry>
                </mxCell>
                <mxCell id="W87k4NDjYQYCP97sbJat-135" value="cd_TipoServico" style="shape=partialRectangle;connectable=0;fillColor=none;top=0;left=0;bottom=0;right=0;align=left;spacingLeft=6;overflow=hidden;fontStyle=5;fontColor=#000000;fontSize=13;" parent="W87k4NDjYQYCP97sbJat-133" vertex="1">
                    <mxGeometry x="60" width="160" height="30" as="geometry">
                        <mxRectangle width="160" height="30" as="alternateBounds"/>
                    </mxGeometry>
                </mxCell>
                <mxCell id="V1VXAKcIepDMNvetjRww-197" value="" style="shape=tableRow;horizontal=0;startSize=0;swimlaneHead=0;swimlaneBody=0;fillColor=none;collapsible=0;dropTarget=0;points=[[0,0.5],[1,0.5]];portConstraint=eastwest;top=0;left=0;right=0;bottom=1;fontColor=#000000;fontSize=13;" parent="V1VXAKcIepDMNvetjRww-193" vertex="1">
                    <mxGeometry y="90" width="220" height="30" as="geometry"/>
                </mxCell>
                <mxCell id="V1VXAKcIepDMNvetjRww-198" value="PK" style="shape=partialRectangle;connectable=0;fillColor=none;top=0;left=0;bottom=0;right=0;fontStyle=1;overflow=hidden;fontColor=#000000;fontSize=13;" parent="V1VXAKcIepDMNvetjRww-197" vertex="1">
                    <mxGeometry width="60" height="30" as="geometry">
                        <mxRectangle width="60" height="30" as="alternateBounds"/>
                    </mxGeometry>
                </mxCell>
                <mxCell id="V1VXAKcIepDMNvetjRww-199" value="cd_OrdemServicoItens" style="shape=partialRectangle;connectable=0;fillColor=none;top=0;left=0;bottom=0;right=0;align=left;spacingLeft=6;fontStyle=5;overflow=hidden;fontColor=#000000;fontSize=13;" parent="V1VXAKcIepDMNvetjRww-197" vertex="1">
                    <mxGeometry x="60" width="160" height="30" as="geometry">
                        <mxRectangle width="160" height="30" as="alternateBounds"/>
                    </mxGeometry>
                </mxCell>
                <mxCell id="V1VXAKcIepDMNvetjRww-200" value="" style="shape=tableRow;horizontal=0;startSize=0;swimlaneHead=0;swimlaneBody=0;fillColor=none;collapsible=0;dropTarget=0;points=[[0,0.5],[1,0.5]];portConstraint=eastwest;top=0;left=0;right=0;bottom=0;fontColor=#000000;fontSize=13;" parent="V1VXAKcIepDMNvetjRww-193" vertex="1">
                    <mxGeometry y="120" width="220" height="30" as="geometry"/>
                </mxCell>
                <mxCell id="V1VXAKcIepDMNvetjRww-201" value="" style="shape=partialRectangle;connectable=0;fillColor=none;top=0;left=0;bottom=0;right=0;editable=1;overflow=hidden;fontColor=#000000;fontSize=13;" parent="V1VXAKcIepDMNvetjRww-200" vertex="1">
                    <mxGeometry width="60" height="30" as="geometry">
                        <mxRectangle width="60" height="30" as="alternateBounds"/>
                    </mxGeometry>
                </mxCell>
                <mxCell id="V1VXAKcIepDMNvetjRww-202" value="ds_OrdemServicoItens" style="shape=partialRectangle;connectable=0;fillColor=none;top=0;left=0;bottom=0;right=0;align=left;spacingLeft=6;overflow=hidden;fontColor=#000000;fontSize=13;" parent="V1VXAKcIepDMNvetjRww-200" vertex="1">
                    <mxGeometry x="60" width="160" height="30" as="geometry">
                        <mxRectangle width="160" height="30" as="alternateBounds"/>
                    </mxGeometry>
                </mxCell>
                <mxCell id="V1VXAKcIepDMNvetjRww-203" value="" style="shape=tableRow;horizontal=0;startSize=0;swimlaneHead=0;swimlaneBody=0;fillColor=none;collapsible=0;dropTarget=0;points=[[0,0.5],[1,0.5]];portConstraint=eastwest;top=0;left=0;right=0;bottom=0;fontColor=#000000;fontSize=13;" parent="V1VXAKcIepDMNvetjRww-193" vertex="1">
                    <mxGeometry y="150" width="220" height="30" as="geometry"/>
                </mxCell>
                <mxCell id="V1VXAKcIepDMNvetjRww-204" value="" style="shape=partialRectangle;connectable=0;fillColor=none;top=0;left=0;bottom=0;right=0;editable=1;overflow=hidden;fontColor=#000000;fontSize=13;" parent="V1VXAKcIepDMNvetjRww-203" vertex="1">
                    <mxGeometry width="60" height="30" as="geometry">
                        <mxRectangle width="60" height="30" as="alternateBounds"/>
                    </mxGeometry>
                </mxCell>
                <mxCell id="V1VXAKcIepDMNvetjRww-205" value="" style="shape=partialRectangle;connectable=0;fillColor=none;top=0;left=0;bottom=0;right=0;align=left;spacingLeft=6;overflow=hidden;fontColor=#000000;fontSize=13;" parent="V1VXAKcIepDMNvetjRww-203" vertex="1">
                    <mxGeometry x="60" width="160" height="30" as="geometry">
                        <mxRectangle width="160" height="30" as="alternateBounds"/>
                    </mxGeometry>
                </mxCell>
                <mxCell id="V1VXAKcIepDMNvetjRww-206" value="OrdemServicoItensEmpregado" style="shape=table;startSize=30;container=1;collapsible=1;childLayout=tableLayout;fixedRows=1;rowLines=0;fontStyle=1;align=center;resizeLast=1;fontColor=#000000;fontSize=13;" parent="1" vertex="1">
                    <mxGeometry x="590" y="650" width="270" height="160" as="geometry"/>
                </mxCell>
                <mxCell id="V1VXAKcIepDMNvetjRww-207" value="" style="shape=tableRow;horizontal=0;startSize=0;swimlaneHead=0;swimlaneBody=0;fillColor=none;collapsible=0;dropTarget=0;points=[[0,0.5],[1,0.5]];portConstraint=eastwest;top=0;left=0;right=0;bottom=0;fontColor=#000000;fontSize=13;" parent="V1VXAKcIepDMNvetjRww-206" vertex="1">
                    <mxGeometry y="30" width="270" height="30" as="geometry"/>
                </mxCell>
                <mxCell id="V1VXAKcIepDMNvetjRww-208" value="PK,FK1" style="shape=partialRectangle;connectable=0;fillColor=none;top=0;left=0;bottom=0;right=0;fontStyle=1;overflow=hidden;fontColor=#000000;fontSize=13;" parent="V1VXAKcIepDMNvetjRww-207" vertex="1">
                    <mxGeometry width="60" height="30" as="geometry">
                        <mxRectangle width="60" height="30" as="alternateBounds"/>
                    </mxGeometry>
                </mxCell>
                <mxCell id="V1VXAKcIepDMNvetjRww-209" value="cd_OrdemServicoItens" style="shape=partialRectangle;connectable=0;fillColor=none;top=0;left=0;bottom=0;right=0;align=left;spacingLeft=6;fontStyle=5;overflow=hidden;fontColor=#000000;fontSize=13;" parent="V1VXAKcIepDMNvetjRww-207" vertex="1">
                    <mxGeometry x="60" width="210" height="30" as="geometry">
                        <mxRectangle width="210" height="30" as="alternateBounds"/>
                    </mxGeometry>
                </mxCell>
                <mxCell id="V1VXAKcIepDMNvetjRww-210" value="" style="shape=tableRow;horizontal=0;startSize=0;swimlaneHead=0;swimlaneBody=0;fillColor=none;collapsible=0;dropTarget=0;points=[[0,0.5],[1,0.5]];portConstraint=eastwest;top=0;left=0;right=0;bottom=1;fontColor=#000000;fontSize=13;" parent="V1VXAKcIepDMNvetjRww-206" vertex="1">
                    <mxGeometry y="60" width="270" height="30" as="geometry"/>
                </mxCell>
                <mxCell id="V1VXAKcIepDMNvetjRww-211" value="PK,FK2" style="shape=partialRectangle;connectable=0;fillColor=none;top=0;left=0;bottom=0;right=0;fontStyle=1;overflow=hidden;fontColor=#000000;fontSize=13;" parent="V1VXAKcIepDMNvetjRww-210" vertex="1">
                    <mxGeometry width="60" height="30" as="geometry">
                        <mxRectangle width="60" height="30" as="alternateBounds"/>
                    </mxGeometry>
                </mxCell>
                <mxCell id="V1VXAKcIepDMNvetjRww-212" value="cd_Empregado" style="shape=partialRectangle;connectable=0;fillColor=none;top=0;left=0;bottom=0;right=0;align=left;spacingLeft=6;fontStyle=5;overflow=hidden;fontColor=#000000;fontSize=13;" parent="V1VXAKcIepDMNvetjRww-210" vertex="1">
                    <mxGeometry x="60" width="210" height="30" as="geometry">
                        <mxRectangle width="210" height="30" as="alternateBounds"/>
                    </mxGeometry>
                </mxCell>
                <mxCell id="V1VXAKcIepDMNvetjRww-213" value="" style="shape=tableRow;horizontal=0;startSize=0;swimlaneHead=0;swimlaneBody=0;fillColor=none;collapsible=0;dropTarget=0;points=[[0,0.5],[1,0.5]];portConstraint=eastwest;top=0;left=0;right=0;bottom=0;fontColor=#000000;fontSize=13;" parent="V1VXAKcIepDMNvetjRww-206" vertex="1">
                    <mxGeometry y="90" width="270" height="30" as="geometry"/>
                </mxCell>
                <mxCell id="V1VXAKcIepDMNvetjRww-214" value="" style="shape=partialRectangle;connectable=0;fillColor=none;top=0;left=0;bottom=0;right=0;editable=1;overflow=hidden;fontColor=#000000;fontSize=13;" parent="V1VXAKcIepDMNvetjRww-213" vertex="1">
                    <mxGeometry width="60" height="30" as="geometry">
                        <mxRectangle width="60" height="30" as="alternateBounds"/>
                    </mxGeometry>
                </mxCell>
                <mxCell id="V1VXAKcIepDMNvetjRww-215" value="ds_OrdemServicoItensEmpregado" style="shape=partialRectangle;connectable=0;fillColor=none;top=0;left=0;bottom=0;right=0;align=left;spacingLeft=6;overflow=hidden;fontColor=#000000;fontSize=13;" parent="V1VXAKcIepDMNvetjRww-213" vertex="1">
                    <mxGeometry x="60" width="210" height="30" as="geometry">
                        <mxRectangle width="210" height="30" as="alternateBounds"/>
                    </mxGeometry>
                </mxCell>
                <mxCell id="V1VXAKcIepDMNvetjRww-216" value="" style="shape=tableRow;horizontal=0;startSize=0;swimlaneHead=0;swimlaneBody=0;fillColor=none;collapsible=0;dropTarget=0;points=[[0,0.5],[1,0.5]];portConstraint=eastwest;top=0;left=0;right=0;bottom=0;fontColor=#000000;fontSize=13;" parent="V1VXAKcIepDMNvetjRww-206" vertex="1">
                    <mxGeometry y="120" width="270" height="30" as="geometry"/>
                </mxCell>
                <mxCell id="V1VXAKcIepDMNvetjRww-217" value="" style="shape=partialRectangle;connectable=0;fillColor=none;top=0;left=0;bottom=0;right=0;editable=1;overflow=hidden;fontColor=#000000;fontSize=13;" parent="V1VXAKcIepDMNvetjRww-216" vertex="1">
                    <mxGeometry width="60" height="30" as="geometry">
                        <mxRectangle width="60" height="30" as="alternateBounds"/>
                    </mxGeometry>
                </mxCell>
                <mxCell id="V1VXAKcIepDMNvetjRww-218" value="" style="shape=partialRectangle;connectable=0;fillColor=none;top=0;left=0;bottom=0;right=0;align=left;spacingLeft=6;overflow=hidden;fontColor=#000000;fontSize=13;" parent="V1VXAKcIepDMNvetjRww-216" vertex="1">
                    <mxGeometry x="60" width="210" height="30" as="geometry">
                        <mxRectangle width="210" height="30" as="alternateBounds"/>
                    </mxGeometry>
                </mxCell>
                <mxCell id="V1VXAKcIepDMNvetjRww-219" value="" style="edgeStyle=entityRelationEdgeStyle;fontSize=13;html=1;endArrow=ERzeroToMany;startArrow=ERmandOne;rounded=0;entryX=1;entryY=0.5;entryDx=0;entryDy=0;endFill=0;fontColor=#000000;" parent="1" target="V1VXAKcIepDMNvetjRww-194" edge="1">
                    <mxGeometry width="100" height="100" relative="1" as="geometry">
                        <mxPoint x="1180" y="450" as="sourcePoint"/>
                        <mxPoint x="650" y="435" as="targetPoint"/>
                    </mxGeometry>
                </mxCell>
                <mxCell id="V1VXAKcIepDMNvetjRww-220" value="" style="edgeStyle=entityRelationEdgeStyle;fontSize=13;html=1;endArrow=ERzeroToMany;startArrow=ERmandOne;rounded=0;endFill=0;exitX=1;exitY=0.5;exitDx=0;exitDy=0;fontColor=#000000;" parent="1" source="V1VXAKcIepDMNvetjRww-149" target="V1VXAKcIepDMNvetjRww-200" edge="1">
                    <mxGeometry width="100" height="100" relative="1" as="geometry">
                        <mxPoint x="1190" y="700" as="sourcePoint"/>
                        <mxPoint x="660" y="445" as="targetPoint"/>
                    </mxGeometry>
                </mxCell>
                <mxCell id="V1VXAKcIepDMNvetjRww-221" value="" style="edgeStyle=entityRelationEdgeStyle;fontSize=13;html=1;endArrow=ERzeroToMany;startArrow=ERmandOne;rounded=0;exitX=0;exitY=0.5;exitDx=0;exitDy=0;endFill=0;fontColor=#000000;" parent="1" source="V1VXAKcIepDMNvetjRww-200" target="V1VXAKcIepDMNvetjRww-207" edge="1">
                    <mxGeometry width="100" height="100" relative="1" as="geometry">
                        <mxPoint x="529.0999999999999" y="412" as="sourcePoint"/>
                        <mxPoint x="670" y="455" as="targetPoint"/>
                    </mxGeometry>
                </mxCell>
                <mxCell id="V1VXAKcIepDMNvetjRww-222" value="" style="edgeStyle=entityRelationEdgeStyle;fontSize=13;html=1;endArrow=ERzeroToMany;startArrow=ERmandOne;entryX=0;entryY=0.5;entryDx=0;entryDy=0;endFill=0;exitX=1;exitY=0.5;exitDx=0;exitDy=0;rounded=0;fontColor=#000000;" parent="1" source="V1VXAKcIepDMNvetjRww-2" target="V1VXAKcIepDMNvetjRww-216" edge="1">
                    <mxGeometry width="100" height="100" relative="1" as="geometry">
                        <mxPoint x="530" y="760" as="sourcePoint"/>
                        <mxPoint x="680" y="465" as="targetPoint"/>
                    </mxGeometry>
                </mxCell>
                <mxCell id="W87k4NDjYQYCP97sbJat-27" value="Cidade" style="shape=table;startSize=30;container=1;collapsible=1;childLayout=tableLayout;fixedRows=1;rowLines=0;fontStyle=1;align=center;resizeLast=1;fontColor=#000000;fontSize=13;" parent="1" vertex="1">
                    <mxGeometry x="620" y="40" width="180" height="130" as="geometry"/>
                </mxCell>
                <mxCell id="W87k4NDjYQYCP97sbJat-28" value="" style="shape=tableRow;horizontal=0;startSize=0;swimlaneHead=0;swimlaneBody=0;fillColor=none;collapsible=0;dropTarget=0;points=[[0,0.5],[1,0.5]];portConstraint=eastwest;top=0;left=0;right=0;bottom=1;fontColor=#000000;fontSize=13;" parent="W87k4NDjYQYCP97sbJat-27" vertex="1">
                    <mxGeometry y="30" width="180" height="30" as="geometry"/>
                </mxCell>
                <mxCell id="W87k4NDjYQYCP97sbJat-29" value="PK" style="shape=partialRectangle;connectable=0;fillColor=none;top=0;left=0;bottom=0;right=0;fontStyle=1;overflow=hidden;fontColor=#000000;fontSize=13;" parent="W87k4NDjYQYCP97sbJat-28" vertex="1">
                    <mxGeometry width="30" height="30" as="geometry">
                        <mxRectangle width="30" height="30" as="alternateBounds"/>
                    </mxGeometry>
                </mxCell>
                <mxCell id="W87k4NDjYQYCP97sbJat-30" value="cd_Cidade" style="shape=partialRectangle;connectable=0;fillColor=none;top=0;left=0;bottom=0;right=0;align=left;spacingLeft=6;fontStyle=5;overflow=hidden;fontColor=#000000;fontSize=13;" parent="W87k4NDjYQYCP97sbJat-28" vertex="1">
                    <mxGeometry x="30" width="150" height="30" as="geometry">
                        <mxRectangle width="150" height="30" as="alternateBounds"/>
                    </mxGeometry>
                </mxCell>
                <mxCell id="W87k4NDjYQYCP97sbJat-31" value="" style="shape=tableRow;horizontal=0;startSize=0;swimlaneHead=0;swimlaneBody=0;fillColor=none;collapsible=0;dropTarget=0;points=[[0,0.5],[1,0.5]];portConstraint=eastwest;top=0;left=0;right=0;bottom=0;fontColor=#000000;fontSize=13;" parent="W87k4NDjYQYCP97sbJat-27" vertex="1">
                    <mxGeometry y="60" width="180" height="30" as="geometry"/>
                </mxCell>
                <mxCell id="W87k4NDjYQYCP97sbJat-32" value="" style="shape=partialRectangle;connectable=0;fillColor=none;top=0;left=0;bottom=0;right=0;editable=1;overflow=hidden;fontColor=#000000;fontSize=13;" parent="W87k4NDjYQYCP97sbJat-31" vertex="1">
                    <mxGeometry width="30" height="30" as="geometry">
                        <mxRectangle width="30" height="30" as="alternateBounds"/>
                    </mxGeometry>
                </mxCell>
                <mxCell id="W87k4NDjYQYCP97sbJat-33" value="nm_Cidade" style="shape=partialRectangle;connectable=0;fillColor=none;top=0;left=0;bottom=0;right=0;align=left;spacingLeft=6;overflow=hidden;fontColor=#000000;fontSize=13;" parent="W87k4NDjYQYCP97sbJat-31" vertex="1">
                    <mxGeometry x="30" width="150" height="30" as="geometry">
                        <mxRectangle width="150" height="30" as="alternateBounds"/>
                    </mxGeometry>
                </mxCell>
                <mxCell id="W87k4NDjYQYCP97sbJat-70" value="" style="shape=tableRow;horizontal=0;startSize=0;swimlaneHead=0;swimlaneBody=0;fillColor=none;collapsible=0;dropTarget=0;points=[[0,0.5],[1,0.5]];portConstraint=eastwest;top=0;left=0;right=0;bottom=0;fontColor=#000000;fontSize=13;" parent="W87k4NDjYQYCP97sbJat-27" vertex="1">
                    <mxGeometry y="90" width="180" height="30" as="geometry"/>
                </mxCell>
                <mxCell id="W87k4NDjYQYCP97sbJat-71" value="FK" style="shape=partialRectangle;connectable=0;fillColor=none;top=0;left=0;bottom=0;right=0;fontStyle=0;overflow=hidden;fontColor=#000000;fontSize=13;" parent="W87k4NDjYQYCP97sbJat-70" vertex="1">
                    <mxGeometry width="30" height="30" as="geometry">
                        <mxRectangle width="30" height="30" as="alternateBounds"/>
                    </mxGeometry>
                </mxCell>
                <mxCell id="W87k4NDjYQYCP97sbJat-72" value="cd_Estado" style="shape=partialRectangle;connectable=0;fillColor=none;top=0;left=0;bottom=0;right=0;align=left;spacingLeft=6;fontStyle=0;overflow=hidden;fontColor=#000000;fontSize=13;" parent="W87k4NDjYQYCP97sbJat-70" vertex="1">
                    <mxGeometry x="30" width="150" height="30" as="geometry">
                        <mxRectangle width="150" height="30" as="alternateBounds"/>
                    </mxGeometry>
                </mxCell>
                <mxCell id="W87k4NDjYQYCP97sbJat-40" value="Estado" style="shape=table;startSize=30;container=1;collapsible=1;childLayout=tableLayout;fixedRows=1;rowLines=0;fontStyle=1;align=center;resizeLast=1;fontColor=#000000;fontSize=13;" parent="1" vertex="1">
                    <mxGeometry x="890" width="180" height="130" as="geometry"/>
                </mxCell>
                <mxCell id="W87k4NDjYQYCP97sbJat-41" value="" style="shape=tableRow;horizontal=0;startSize=0;swimlaneHead=0;swimlaneBody=0;fillColor=none;collapsible=0;dropTarget=0;points=[[0,0.5],[1,0.5]];portConstraint=eastwest;top=0;left=0;right=0;bottom=1;fontColor=#000000;fontSize=13;" parent="W87k4NDjYQYCP97sbJat-40" vertex="1">
                    <mxGeometry y="30" width="180" height="30" as="geometry"/>
                </mxCell>
                <mxCell id="W87k4NDjYQYCP97sbJat-42" value="PK" style="shape=partialRectangle;connectable=0;fillColor=none;top=0;left=0;bottom=0;right=0;fontStyle=1;overflow=hidden;fontColor=#000000;fontSize=13;" parent="W87k4NDjYQYCP97sbJat-41" vertex="1">
                    <mxGeometry width="30" height="30" as="geometry">
                        <mxRectangle width="30" height="30" as="alternateBounds"/>
                    </mxGeometry>
                </mxCell>
                <mxCell id="W87k4NDjYQYCP97sbJat-43" value="cd_Estado" style="shape=partialRectangle;connectable=0;fillColor=none;top=0;left=0;bottom=0;right=0;align=left;spacingLeft=6;fontStyle=5;overflow=hidden;fontColor=#000000;fontSize=13;" parent="W87k4NDjYQYCP97sbJat-41" vertex="1">
                    <mxGeometry x="30" width="150" height="30" as="geometry">
                        <mxRectangle width="150" height="30" as="alternateBounds"/>
                    </mxGeometry>
                </mxCell>
                <mxCell id="W87k4NDjYQYCP97sbJat-44" value="" style="shape=tableRow;horizontal=0;startSize=0;swimlaneHead=0;swimlaneBody=0;fillColor=none;collapsible=0;dropTarget=0;points=[[0,0.5],[1,0.5]];portConstraint=eastwest;top=0;left=0;right=0;bottom=0;fontColor=#000000;fontSize=13;" parent="W87k4NDjYQYCP97sbJat-40" vertex="1">
                    <mxGeometry y="60" width="180" height="30" as="geometry"/>
                </mxCell>
                <mxCell id="W87k4NDjYQYCP97sbJat-45" value="" style="shape=partialRectangle;connectable=0;fillColor=none;top=0;left=0;bottom=0;right=0;editable=1;overflow=hidden;fontColor=#000000;fontSize=13;" parent="W87k4NDjYQYCP97sbJat-44" vertex="1">
                    <mxGeometry width="30" height="30" as="geometry">
                        <mxRectangle width="30" height="30" as="alternateBounds"/>
                    </mxGeometry>
                </mxCell>
                <mxCell id="W87k4NDjYQYCP97sbJat-46" value="nm_Estado" style="shape=partialRectangle;connectable=0;fillColor=none;top=0;left=0;bottom=0;right=0;align=left;spacingLeft=6;overflow=hidden;fontColor=#000000;fontSize=13;" parent="W87k4NDjYQYCP97sbJat-44" vertex="1">
                    <mxGeometry x="30" width="150" height="30" as="geometry">
                        <mxRectangle width="150" height="30" as="alternateBounds"/>
                    </mxGeometry>
                </mxCell>
                <mxCell id="W87k4NDjYQYCP97sbJat-66" value="" style="shape=tableRow;horizontal=0;startSize=0;swimlaneHead=0;swimlaneBody=0;fillColor=none;collapsible=0;dropTarget=0;points=[[0,0.5],[1,0.5]];portConstraint=eastwest;top=0;left=0;right=0;bottom=0;fontColor=#000000;fontSize=13;" parent="W87k4NDjYQYCP97sbJat-40" vertex="1">
                    <mxGeometry y="90" width="180" height="30" as="geometry"/>
                </mxCell>
                <mxCell id="W87k4NDjYQYCP97sbJat-67" value="FK" style="shape=partialRectangle;connectable=0;fillColor=none;top=0;left=0;bottom=0;right=0;fontStyle=0;overflow=hidden;fontColor=#000000;fontSize=13;" parent="W87k4NDjYQYCP97sbJat-66" vertex="1">
                    <mxGeometry width="30" height="30" as="geometry">
                        <mxRectangle width="30" height="30" as="alternateBounds"/>
                    </mxGeometry>
                </mxCell>
                <mxCell id="W87k4NDjYQYCP97sbJat-68" value="cd_Pais" style="shape=partialRectangle;connectable=0;fillColor=none;top=0;left=0;bottom=0;right=0;align=left;spacingLeft=6;fontStyle=0;overflow=hidden;fontColor=#000000;fontSize=13;" parent="W87k4NDjYQYCP97sbJat-66" vertex="1">
                    <mxGeometry x="30" width="150" height="30" as="geometry">
                        <mxRectangle width="150" height="30" as="alternateBounds"/>
                    </mxGeometry>
                </mxCell>
                <mxCell id="W87k4NDjYQYCP97sbJat-53" value="Pais" style="shape=table;startSize=30;container=1;collapsible=1;childLayout=tableLayout;fixedRows=1;rowLines=0;fontStyle=1;align=center;resizeLast=1;fontColor=#000000;fontSize=13;" parent="1" vertex="1">
                    <mxGeometry x="1140" y="15" width="180" height="100" as="geometry"/>
                </mxCell>
                <mxCell id="W87k4NDjYQYCP97sbJat-54" value="" style="shape=tableRow;horizontal=0;startSize=0;swimlaneHead=0;swimlaneBody=0;fillColor=none;collapsible=0;dropTarget=0;points=[[0,0.5],[1,0.5]];portConstraint=eastwest;top=0;left=0;right=0;bottom=1;fontColor=#000000;fontSize=13;" parent="W87k4NDjYQYCP97sbJat-53" vertex="1">
                    <mxGeometry y="30" width="180" height="30" as="geometry"/>
                </mxCell>
                <mxCell id="W87k4NDjYQYCP97sbJat-55" value="PK" style="shape=partialRectangle;connectable=0;fillColor=none;top=0;left=0;bottom=0;right=0;fontStyle=1;overflow=hidden;fontColor=#000000;fontSize=13;" parent="W87k4NDjYQYCP97sbJat-54" vertex="1">
                    <mxGeometry width="30" height="30" as="geometry">
                        <mxRectangle width="30" height="30" as="alternateBounds"/>
                    </mxGeometry>
                </mxCell>
                <mxCell id="W87k4NDjYQYCP97sbJat-56" value="cd_Pais" style="shape=partialRectangle;connectable=0;fillColor=none;top=0;left=0;bottom=0;right=0;align=left;spacingLeft=6;fontStyle=5;overflow=hidden;fontColor=#000000;fontSize=13;" parent="W87k4NDjYQYCP97sbJat-54" vertex="1">
                    <mxGeometry x="30" width="150" height="30" as="geometry">
                        <mxRectangle width="150" height="30" as="alternateBounds"/>
                    </mxGeometry>
                </mxCell>
                <mxCell id="W87k4NDjYQYCP97sbJat-57" value="" style="shape=tableRow;horizontal=0;startSize=0;swimlaneHead=0;swimlaneBody=0;fillColor=none;collapsible=0;dropTarget=0;points=[[0,0.5],[1,0.5]];portConstraint=eastwest;top=0;left=0;right=0;bottom=0;fontColor=#000000;fontSize=13;" parent="W87k4NDjYQYCP97sbJat-53" vertex="1">
                    <mxGeometry y="60" width="180" height="30" as="geometry"/>
                </mxCell>
                <mxCell id="W87k4NDjYQYCP97sbJat-58" value="" style="shape=partialRectangle;connectable=0;fillColor=none;top=0;left=0;bottom=0;right=0;editable=1;overflow=hidden;fontColor=#000000;fontSize=13;" parent="W87k4NDjYQYCP97sbJat-57" vertex="1">
                    <mxGeometry width="30" height="30" as="geometry">
                        <mxRectangle width="30" height="30" as="alternateBounds"/>
                    </mxGeometry>
                </mxCell>
                <mxCell id="W87k4NDjYQYCP97sbJat-59" value="nm_Pais" style="shape=partialRectangle;connectable=0;fillColor=none;top=0;left=0;bottom=0;right=0;align=left;spacingLeft=6;overflow=hidden;fontColor=#000000;fontSize=13;" parent="W87k4NDjYQYCP97sbJat-57" vertex="1">
                    <mxGeometry x="30" width="150" height="30" as="geometry">
                        <mxRectangle width="150" height="30" as="alternateBounds"/>
                    </mxGeometry>
                </mxCell>
                <mxCell id="W87k4NDjYQYCP97sbJat-69" value="" style="edgeStyle=entityRelationEdgeStyle;fontSize=13;html=1;endArrow=ERzeroToMany;startArrow=ERmandOne;rounded=0;fontColor=#000000;" parent="1" source="W87k4NDjYQYCP97sbJat-57" target="W87k4NDjYQYCP97sbJat-66" edge="1">
                    <mxGeometry width="100" height="100" relative="1" as="geometry">
                        <mxPoint x="1370" y="260" as="sourcePoint"/>
                        <mxPoint x="1470" y="160" as="targetPoint"/>
                    </mxGeometry>
                </mxCell>
                <mxCell id="W87k4NDjYQYCP97sbJat-73" value="" style="edgeStyle=entityRelationEdgeStyle;fontSize=13;html=1;endArrow=ERzeroToMany;startArrow=ERmandOne;rounded=0;exitX=0;exitY=0.5;exitDx=0;exitDy=0;entryX=1;entryY=0.5;entryDx=0;entryDy=0;fontColor=#000000;" parent="1" source="W87k4NDjYQYCP97sbJat-44" target="W87k4NDjYQYCP97sbJat-70" edge="1">
                    <mxGeometry width="100" height="100" relative="1" as="geometry">
                        <mxPoint x="80" y="310" as="sourcePoint"/>
                        <mxPoint x="180" y="210" as="targetPoint"/>
                    </mxGeometry>
                </mxCell>
                <mxCell id="W87k4NDjYQYCP97sbJat-74" value="ClienteEndereco" style="shape=table;startSize=30;container=1;collapsible=1;childLayout=tableLayout;fixedRows=1;rowLines=0;fontStyle=1;align=center;resizeLast=1;fontColor=#000000;fontSize=13;" parent="1" vertex="1">
                    <mxGeometry x="320" y="160" width="200" height="200" as="geometry"/>
                </mxCell>
                <mxCell id="W87k4NDjYQYCP97sbJat-75" value="" style="shape=tableRow;horizontal=0;startSize=0;swimlaneHead=0;swimlaneBody=0;fillColor=none;collapsible=0;dropTarget=0;points=[[0,0.5],[1,0.5]];portConstraint=eastwest;top=0;left=0;right=0;bottom=0;fontColor=#000000;fontSize=13;" parent="W87k4NDjYQYCP97sbJat-74" vertex="1">
                    <mxGeometry y="30" width="200" height="30" as="geometry"/>
                </mxCell>
                <mxCell id="W87k4NDjYQYCP97sbJat-76" value="PK,FK" style="shape=partialRectangle;connectable=0;fillColor=none;top=0;left=0;bottom=0;right=0;fontStyle=1;overflow=hidden;fontColor=#000000;fontSize=13;" parent="W87k4NDjYQYCP97sbJat-75" vertex="1">
                    <mxGeometry width="60" height="30" as="geometry">
                        <mxRectangle width="60" height="30" as="alternateBounds"/>
                    </mxGeometry>
                </mxCell>
                <mxCell id="W87k4NDjYQYCP97sbJat-77" value="cd_Cliente" style="shape=partialRectangle;connectable=0;fillColor=none;top=0;left=0;bottom=0;right=0;align=left;spacingLeft=6;fontStyle=5;overflow=hidden;fontColor=#000000;fontSize=13;" parent="W87k4NDjYQYCP97sbJat-75" vertex="1">
                    <mxGeometry x="60" width="140" height="30" as="geometry">
                        <mxRectangle width="140" height="30" as="alternateBounds"/>
                    </mxGeometry>
                </mxCell>
                <mxCell id="W87k4NDjYQYCP97sbJat-78" value="" style="shape=tableRow;horizontal=0;startSize=0;swimlaneHead=0;swimlaneBody=0;fillColor=none;collapsible=0;dropTarget=0;points=[[0,0.5],[1,0.5]];portConstraint=eastwest;top=0;left=0;right=0;bottom=1;fontColor=#000000;fontSize=13;" parent="W87k4NDjYQYCP97sbJat-74" vertex="1">
                    <mxGeometry y="60" width="200" height="30" as="geometry"/>
                </mxCell>
                <mxCell id="W87k4NDjYQYCP97sbJat-79" value="PK" style="shape=partialRectangle;connectable=0;fillColor=none;top=0;left=0;bottom=0;right=0;fontStyle=1;overflow=hidden;fontColor=#000000;fontSize=13;" parent="W87k4NDjYQYCP97sbJat-78" vertex="1">
                    <mxGeometry width="60" height="30" as="geometry">
                        <mxRectangle width="60" height="30" as="alternateBounds"/>
                    </mxGeometry>
                </mxCell>
                <mxCell id="W87k4NDjYQYCP97sbJat-80" value="cd_ClienteEndereco" style="shape=partialRectangle;connectable=0;fillColor=none;top=0;left=0;bottom=0;right=0;align=left;spacingLeft=6;fontStyle=5;overflow=hidden;fontColor=#000000;fontSize=13;" parent="W87k4NDjYQYCP97sbJat-78" vertex="1">
                    <mxGeometry x="60" width="140" height="30" as="geometry">
                        <mxRectangle width="140" height="30" as="alternateBounds"/>
                    </mxGeometry>
                </mxCell>
                <mxCell id="W87k4NDjYQYCP97sbJat-81" value="" style="shape=tableRow;horizontal=0;startSize=0;swimlaneHead=0;swimlaneBody=0;fillColor=none;collapsible=0;dropTarget=0;points=[[0,0.5],[1,0.5]];portConstraint=eastwest;top=0;left=0;right=0;bottom=0;fontColor=#000000;fontSize=13;" parent="W87k4NDjYQYCP97sbJat-74" vertex="1">
                    <mxGeometry y="90" width="200" height="30" as="geometry"/>
                </mxCell>
                <mxCell id="W87k4NDjYQYCP97sbJat-82" value="" style="shape=partialRectangle;connectable=0;fillColor=none;top=0;left=0;bottom=0;right=0;editable=1;overflow=hidden;fontColor=#000000;fontSize=13;" parent="W87k4NDjYQYCP97sbJat-81" vertex="1">
                    <mxGeometry width="60" height="30" as="geometry">
                        <mxRectangle width="60" height="30" as="alternateBounds"/>
                    </mxGeometry>
                </mxCell>
                <mxCell id="W87k4NDjYQYCP97sbJat-83" value="nr_EnderecoCliente" style="shape=partialRectangle;connectable=0;fillColor=none;top=0;left=0;bottom=0;right=0;align=left;spacingLeft=6;overflow=hidden;fontColor=#000000;fontSize=13;" parent="W87k4NDjYQYCP97sbJat-81" vertex="1">
                    <mxGeometry x="60" width="140" height="30" as="geometry">
                        <mxRectangle width="140" height="30" as="alternateBounds"/>
                    </mxGeometry>
                </mxCell>
                <mxCell id="W87k4NDjYQYCP97sbJat-84" value="" style="shape=tableRow;horizontal=0;startSize=0;swimlaneHead=0;swimlaneBody=0;fillColor=none;collapsible=0;dropTarget=0;points=[[0,0.5],[1,0.5]];portConstraint=eastwest;top=0;left=0;right=0;bottom=0;fontColor=#000000;fontSize=13;" parent="W87k4NDjYQYCP97sbJat-74" vertex="1">
                    <mxGeometry y="120" width="200" height="30" as="geometry"/>
                </mxCell>
                <mxCell id="W87k4NDjYQYCP97sbJat-85" value="" style="shape=partialRectangle;connectable=0;fillColor=none;top=0;left=0;bottom=0;right=0;editable=1;overflow=hidden;fontColor=#000000;fontSize=13;" parent="W87k4NDjYQYCP97sbJat-84" vertex="1">
                    <mxGeometry width="60" height="30" as="geometry">
                        <mxRectangle width="60" height="30" as="alternateBounds"/>
                    </mxGeometry>
                </mxCell>
                <mxCell id="W87k4NDjYQYCP97sbJat-86" value="nm_Logradouro" style="shape=partialRectangle;connectable=0;fillColor=none;top=0;left=0;bottom=0;right=0;align=left;spacingLeft=6;overflow=hidden;fontColor=#000000;fontSize=13;" parent="W87k4NDjYQYCP97sbJat-84" vertex="1">
                    <mxGeometry x="60" width="140" height="30" as="geometry">
                        <mxRectangle width="140" height="30" as="alternateBounds"/>
                    </mxGeometry>
                </mxCell>
                <mxCell id="W87k4NDjYQYCP97sbJat-87" value="" style="shape=tableRow;horizontal=0;startSize=0;swimlaneHead=0;swimlaneBody=0;fillColor=none;collapsible=0;dropTarget=0;points=[[0,0.5],[1,0.5]];portConstraint=eastwest;top=0;left=0;right=0;bottom=0;fontColor=#000000;fontSize=13;" parent="W87k4NDjYQYCP97sbJat-74" vertex="1">
                    <mxGeometry y="150" width="200" height="30" as="geometry"/>
                </mxCell>
                <mxCell id="W87k4NDjYQYCP97sbJat-88" value="FK" style="shape=partialRectangle;connectable=0;fillColor=none;top=0;left=0;bottom=0;right=0;fontStyle=0;overflow=hidden;fontColor=#000000;fontSize=13;" parent="W87k4NDjYQYCP97sbJat-87" vertex="1">
                    <mxGeometry width="60" height="30" as="geometry">
                        <mxRectangle width="60" height="30" as="alternateBounds"/>
                    </mxGeometry>
                </mxCell>
                <mxCell id="W87k4NDjYQYCP97sbJat-89" value="cd_Cidade" style="shape=partialRectangle;connectable=0;fillColor=none;top=0;left=0;bottom=0;right=0;align=left;spacingLeft=6;fontStyle=0;overflow=hidden;fontColor=#000000;fontSize=13;" parent="W87k4NDjYQYCP97sbJat-87" vertex="1">
                    <mxGeometry x="60" width="140" height="30" as="geometry">
                        <mxRectangle width="140" height="30" as="alternateBounds"/>
                    </mxGeometry>
                </mxCell>
                <mxCell id="W87k4NDjYQYCP97sbJat-91" value="" style="edgeStyle=entityRelationEdgeStyle;fontSize=13;html=1;endArrow=ERoneToMany;startArrow=ERmandOne;rounded=0;entryX=0;entryY=0.5;entryDx=0;entryDy=0;fontColor=#000000;" parent="1" source="W87k4NDjYQYCP97sbJat-75" target="W87k4NDjYQYCP97sbJat-70" edge="1">
                    <mxGeometry width="100" height="100" relative="1" as="geometry">
                        <mxPoint x="520" y="260" as="sourcePoint"/>
                        <mxPoint x="620" y="160" as="targetPoint"/>
                    </mxGeometry>
                </mxCell>
                <mxCell id="W87k4NDjYQYCP97sbJat-92" value="ClienteTelefone" style="shape=table;startSize=30;container=1;collapsible=1;childLayout=tableLayout;fixedRows=1;rowLines=0;fontStyle=1;align=center;resizeLast=1;fontColor=#000000;fontSize=13;" parent="1" vertex="1">
                    <mxGeometry x="680" y="260" width="220" height="230" as="geometry"/>
                </mxCell>
                <mxCell id="W87k4NDjYQYCP97sbJat-93" value="" style="shape=tableRow;horizontal=0;startSize=0;swimlaneHead=0;swimlaneBody=0;fillColor=none;collapsible=0;dropTarget=0;points=[[0,0.5],[1,0.5]];portConstraint=eastwest;top=0;left=0;right=0;bottom=0;fontColor=#000000;fontSize=13;" parent="W87k4NDjYQYCP97sbJat-92" vertex="1">
                    <mxGeometry y="30" width="220" height="30" as="geometry"/>
                </mxCell>
                <mxCell id="W87k4NDjYQYCP97sbJat-94" value="PK,FK" style="shape=partialRectangle;connectable=0;fillColor=none;top=0;left=0;bottom=0;right=0;fontStyle=1;overflow=hidden;fontColor=#000000;fontSize=13;" parent="W87k4NDjYQYCP97sbJat-93" vertex="1">
                    <mxGeometry width="60" height="30" as="geometry">
                        <mxRectangle width="60" height="30" as="alternateBounds"/>
                    </mxGeometry>
                </mxCell>
                <mxCell id="W87k4NDjYQYCP97sbJat-95" value="cd_Cliente" style="shape=partialRectangle;connectable=0;fillColor=none;top=0;left=0;bottom=0;right=0;align=left;spacingLeft=6;fontStyle=5;overflow=hidden;fontColor=#000000;fontSize=13;" parent="W87k4NDjYQYCP97sbJat-93" vertex="1">
                    <mxGeometry x="60" width="160" height="30" as="geometry">
                        <mxRectangle width="160" height="30" as="alternateBounds"/>
                    </mxGeometry>
                </mxCell>
                <mxCell id="W87k4NDjYQYCP97sbJat-96" value="" style="shape=tableRow;horizontal=0;startSize=0;swimlaneHead=0;swimlaneBody=0;fillColor=none;collapsible=0;dropTarget=0;points=[[0,0.5],[1,0.5]];portConstraint=eastwest;top=0;left=0;right=0;bottom=1;fontColor=#000000;fontSize=13;" parent="W87k4NDjYQYCP97sbJat-92" vertex="1">
                    <mxGeometry y="60" width="220" height="30" as="geometry"/>
                </mxCell>
                <mxCell id="W87k4NDjYQYCP97sbJat-97" value="PK" style="shape=partialRectangle;connectable=0;fillColor=none;top=0;left=0;bottom=0;right=0;fontStyle=1;overflow=hidden;fontColor=#000000;fontSize=13;" parent="W87k4NDjYQYCP97sbJat-96" vertex="1">
                    <mxGeometry width="60" height="30" as="geometry">
                        <mxRectangle width="60" height="30" as="alternateBounds"/>
                    </mxGeometry>
                </mxCell>
                <mxCell id="W87k4NDjYQYCP97sbJat-98" value="cd_ClienteTelefone" style="shape=partialRectangle;connectable=0;fillColor=none;top=0;left=0;bottom=0;right=0;align=left;spacingLeft=6;fontStyle=5;overflow=hidden;fontColor=#000000;fontSize=13;" parent="W87k4NDjYQYCP97sbJat-96" vertex="1">
                    <mxGeometry x="60" width="160" height="30" as="geometry">
                        <mxRectangle width="160" height="30" as="alternateBounds"/>
                    </mxGeometry>
                </mxCell>
                <mxCell id="W87k4NDjYQYCP97sbJat-99" value="" style="shape=tableRow;horizontal=0;startSize=0;swimlaneHead=0;swimlaneBody=0;fillColor=none;collapsible=0;dropTarget=0;points=[[0,0.5],[1,0.5]];portConstraint=eastwest;top=0;left=0;right=0;bottom=0;fontColor=#000000;fontSize=13;" parent="W87k4NDjYQYCP97sbJat-92" vertex="1">
                    <mxGeometry y="90" width="220" height="30" as="geometry"/>
                </mxCell>
                <mxCell id="W87k4NDjYQYCP97sbJat-100" value="" style="shape=partialRectangle;connectable=0;fillColor=none;top=0;left=0;bottom=0;right=0;editable=1;overflow=hidden;fontColor=#000000;fontSize=13;" parent="W87k4NDjYQYCP97sbJat-99" vertex="1">
                    <mxGeometry width="60" height="30" as="geometry">
                        <mxRectangle width="60" height="30" as="alternateBounds"/>
                    </mxGeometry>
                </mxCell>
                <mxCell id="W87k4NDjYQYCP97sbJat-101" value="nr_TelefoneCliente" style="shape=partialRectangle;connectable=0;fillColor=none;top=0;left=0;bottom=0;right=0;align=left;spacingLeft=6;overflow=hidden;fontColor=#000000;fontSize=13;" parent="W87k4NDjYQYCP97sbJat-99" vertex="1">
                    <mxGeometry x="60" width="160" height="30" as="geometry">
                        <mxRectangle width="160" height="30" as="alternateBounds"/>
                    </mxGeometry>
                </mxCell>
                <mxCell id="W87k4NDjYQYCP97sbJat-102" value="" style="shape=tableRow;horizontal=0;startSize=0;swimlaneHead=0;swimlaneBody=0;fillColor=none;collapsible=0;dropTarget=0;points=[[0,0.5],[1,0.5]];portConstraint=eastwest;top=0;left=0;right=0;bottom=0;fontColor=#000000;fontSize=13;" parent="W87k4NDjYQYCP97sbJat-92" vertex="1">
                    <mxGeometry y="120" width="220" height="30" as="geometry"/>
                </mxCell>
                <mxCell id="W87k4NDjYQYCP97sbJat-103" value="" style="shape=partialRectangle;connectable=0;fillColor=none;top=0;left=0;bottom=0;right=0;editable=1;overflow=hidden;fontColor=#000000;fontSize=13;" parent="W87k4NDjYQYCP97sbJat-102" vertex="1">
                    <mxGeometry width="60" height="30" as="geometry">
                        <mxRectangle width="60" height="30" as="alternateBounds"/>
                    </mxGeometry>
                </mxCell>
                <mxCell id="W87k4NDjYQYCP97sbJat-104" value="nr_DDDTelefoneCliente" style="shape=partialRectangle;connectable=0;fillColor=none;top=0;left=0;bottom=0;right=0;align=left;spacingLeft=6;overflow=hidden;fontColor=#000000;fontSize=13;" parent="W87k4NDjYQYCP97sbJat-102" vertex="1">
                    <mxGeometry x="60" width="160" height="30" as="geometry">
                        <mxRectangle width="160" height="30" as="alternateBounds"/>
                    </mxGeometry>
                </mxCell>
                <mxCell id="W87k4NDjYQYCP97sbJat-105" value="" style="shape=tableRow;horizontal=0;startSize=0;swimlaneHead=0;swimlaneBody=0;fillColor=none;collapsible=0;dropTarget=0;points=[[0,0.5],[1,0.5]];portConstraint=eastwest;top=0;left=0;right=0;bottom=0;fontColor=#000000;fontSize=13;" parent="W87k4NDjYQYCP97sbJat-92" vertex="1">
                    <mxGeometry y="150" width="220" height="30" as="geometry"/>
                </mxCell>
                <mxCell id="W87k4NDjYQYCP97sbJat-106" value="" style="shape=partialRectangle;connectable=0;fillColor=none;top=0;left=0;bottom=0;right=0;editable=1;overflow=hidden;fontColor=#000000;fontSize=13;" parent="W87k4NDjYQYCP97sbJat-105" vertex="1">
                    <mxGeometry width="60" height="30" as="geometry">
                        <mxRectangle width="60" height="30" as="alternateBounds"/>
                    </mxGeometry>
                </mxCell>
                <mxCell id="W87k4NDjYQYCP97sbJat-107" value="nr_DDITelefoneCliente" style="shape=partialRectangle;connectable=0;fillColor=none;top=0;left=0;bottom=0;right=0;align=left;spacingLeft=6;overflow=hidden;fontColor=#000000;fontSize=13;" parent="W87k4NDjYQYCP97sbJat-105" vertex="1">
                    <mxGeometry x="60" width="160" height="30" as="geometry">
                        <mxRectangle width="160" height="30" as="alternateBounds"/>
                    </mxGeometry>
                </mxCell>
                <mxCell id="W87k4NDjYQYCP97sbJat-111" value="" style="shape=tableRow;horizontal=0;startSize=0;swimlaneHead=0;swimlaneBody=0;fillColor=none;collapsible=0;dropTarget=0;points=[[0,0.5],[1,0.5]];portConstraint=eastwest;top=0;left=0;right=0;bottom=0;fontColor=#000000;fontSize=13;" parent="W87k4NDjYQYCP97sbJat-92" vertex="1">
                    <mxGeometry y="180" width="220" height="30" as="geometry"/>
                </mxCell>
                <mxCell id="W87k4NDjYQYCP97sbJat-112" value="" style="shape=partialRectangle;connectable=0;fillColor=none;top=0;left=0;bottom=0;right=0;editable=1;overflow=hidden;fontColor=#000000;fontSize=13;" parent="W87k4NDjYQYCP97sbJat-111" vertex="1">
                    <mxGeometry width="60" height="30" as="geometry">
                        <mxRectangle width="60" height="30" as="alternateBounds"/>
                    </mxGeometry>
                </mxCell>
                <mxCell id="W87k4NDjYQYCP97sbJat-113" value="nm_Contato" style="shape=partialRectangle;connectable=0;fillColor=none;top=0;left=0;bottom=0;right=0;align=left;spacingLeft=6;overflow=hidden;fontColor=#000000;fontSize=13;" parent="W87k4NDjYQYCP97sbJat-111" vertex="1">
                    <mxGeometry x="60" width="160" height="30" as="geometry">
                        <mxRectangle width="160" height="30" as="alternateBounds"/>
                    </mxGeometry>
                </mxCell>
                <mxCell id="W87k4NDjYQYCP97sbJat-114" value="" style="edgeStyle=entityRelationEdgeStyle;fontSize=13;html=1;endArrow=ERzeroToMany;startArrow=ERmandOne;rounded=0;exitX=1;exitY=0.5;exitDx=0;exitDy=0;fontColor=#000000;" parent="1" source="V1VXAKcIepDMNvetjRww-18" target="W87k4NDjYQYCP97sbJat-111" edge="1">
                    <mxGeometry width="100" height="100" relative="1" as="geometry">
                        <mxPoint x="580" y="510" as="sourcePoint"/>
                        <mxPoint x="160" y="95" as="targetPoint"/>
                    </mxGeometry>
                </mxCell>
                <mxCell id="W87k4NDjYQYCP97sbJat-123" value="" style="edgeStyle=entityRelationEdgeStyle;fontSize=13;html=1;endArrow=ERzeroToMany;startArrow=ERmandOne;rounded=0;exitX=1;exitY=0.5;exitDx=0;exitDy=0;fontColor=#000000;" parent="1" source="V1VXAKcIepDMNvetjRww-15" target="W87k4NDjYQYCP97sbJat-87" edge="1">
                    <mxGeometry width="100" height="100" relative="1" as="geometry">
                        <mxPoint x="520" y="565" as="sourcePoint"/>
                        <mxPoint x="530" y="340" as="targetPoint"/>
                    </mxGeometry>
                </mxCell>
            </root>
        </mxGraphModel>
    </diagram>
    <diagram id="va5GRunMw477nCd9P4iM" name="Page-2">
        <mxGraphModel dx="1347" dy="1574" grid="1" gridSize="10" guides="1" tooltips="1" connect="1" arrows="1" fold="1" page="1" pageScale="1" pageWidth="827" pageHeight="1169" math="0" shadow="0">
            <root>
                <mxCell id="0"/>
                <mxCell id="1" parent="0"/>
                <mxCell id="2Ah-4GNUHKOsoWv0ykdI-18" style="edgeStyle=orthogonalEdgeStyle;rounded=0;orthogonalLoop=1;jettySize=auto;html=1;endArrow=none;endFill=0;" parent="1" source="2Ah-4GNUHKOsoWv0ykdI-1" target="2Ah-4GNUHKOsoWv0ykdI-7" edge="1">
                    <mxGeometry relative="1" as="geometry"/>
                </mxCell>
                <mxCell id="2Ah-4GNUHKOsoWv0ykdI-1" value="Cliente" style="whiteSpace=wrap;html=1;align=center;" parent="1" vertex="1">
                    <mxGeometry x="-470" y="-820" width="100" height="40" as="geometry"/>
                </mxCell>
                <mxCell id="2Ah-4GNUHKOsoWv0ykdI-2" value="Locação&lt;br&gt;Tb-Preço" style="shape=ext;margin=3;double=1;whiteSpace=wrap;html=1;align=center;" parent="1" vertex="1">
                    <mxGeometry x="-460" y="-420" width="100" height="40" as="geometry"/>
                </mxCell>
                <mxCell id="2Ah-4GNUHKOsoWv0ykdI-75" style="edgeStyle=orthogonalEdgeStyle;rounded=0;orthogonalLoop=1;jettySize=auto;html=1;endArrow=none;endFill=0;entryX=0.5;entryY=0;entryDx=0;entryDy=0;" parent="1" target="2Ah-4GNUHKOsoWv0ykdI-8" edge="1">
                    <mxGeometry relative="1" as="geometry">
                        <mxPoint x="-290" y="-440" as="targetPoint"/>
                        <mxPoint x="-248" y="-600" as="sourcePoint"/>
                        <Array as="points">
                            <mxPoint x="-248" y="-400"/>
                            <mxPoint x="-290" y="-400"/>
                        </Array>
                    </mxGeometry>
                </mxCell>
                <mxCell id="2Ah-4GNUHKOsoWv0ykdI-3" value="Locação" style="whiteSpace=wrap;html=1;align=center;" parent="1" vertex="1">
                    <mxGeometry x="-260" y="-640" width="100" height="40" as="geometry"/>
                </mxCell>
                <mxCell id="2Ah-4GNUHKOsoWv0ykdI-16" style="edgeStyle=orthogonalEdgeStyle;rounded=0;orthogonalLoop=1;jettySize=auto;html=1;endArrow=none;endFill=0;" parent="1" source="2Ah-4GNUHKOsoWv0ykdI-4" target="2Ah-4GNUHKOsoWv0ykdI-11" edge="1">
                    <mxGeometry relative="1" as="geometry"/>
                </mxCell>
                <mxCell id="2Ah-4GNUHKOsoWv0ykdI-20" style="edgeStyle=orthogonalEdgeStyle;rounded=0;orthogonalLoop=1;jettySize=auto;html=1;entryX=0;entryY=0.5;entryDx=0;entryDy=0;endArrow=none;endFill=0;" parent="1" source="2Ah-4GNUHKOsoWv0ykdI-4" target="2Ah-4GNUHKOsoWv0ykdI-12" edge="1">
                    <mxGeometry relative="1" as="geometry"/>
                </mxCell>
                <mxCell id="2Ah-4GNUHKOsoWv0ykdI-4" value="Bicicleta" style="whiteSpace=wrap;html=1;align=center;" parent="1" vertex="1">
                    <mxGeometry x="-40" y="-830" width="100" height="40" as="geometry"/>
                </mxCell>
                <mxCell id="2Ah-4GNUHKOsoWv0ykdI-5" value="Revisão" style="whiteSpace=wrap;html=1;align=center;" parent="1" vertex="1">
                    <mxGeometry x="190" y="-1000" width="100" height="40" as="geometry"/>
                </mxCell>
                <mxCell id="2Ah-4GNUHKOsoWv0ykdI-19" style="edgeStyle=orthogonalEdgeStyle;rounded=0;orthogonalLoop=1;jettySize=auto;html=1;endArrow=none;endFill=0;" parent="1" source="2Ah-4GNUHKOsoWv0ykdI-7" target="2Ah-4GNUHKOsoWv0ykdI-3" edge="1">
                    <mxGeometry relative="1" as="geometry"/>
                </mxCell>
                <mxCell id="2Ah-4GNUHKOsoWv0ykdI-7" value="Faz" style="shape=rhombus;perimeter=rhombusPerimeter;whiteSpace=wrap;html=1;align=center;" parent="1" vertex="1">
                    <mxGeometry x="-460" y="-640" width="80" height="40" as="geometry"/>
                </mxCell>
                <mxCell id="2Ah-4GNUHKOsoWv0ykdI-23" style="edgeStyle=orthogonalEdgeStyle;rounded=0;orthogonalLoop=1;jettySize=auto;html=1;endArrow=none;endFill=0;" parent="1" source="2Ah-4GNUHKOsoWv0ykdI-8" target="2Ah-4GNUHKOsoWv0ykdI-2" edge="1">
                    <mxGeometry relative="1" as="geometry"/>
                </mxCell>
                <mxCell id="2Ah-4GNUHKOsoWv0ykdI-8" value="Tem" style="shape=rhombus;double=1;perimeter=rhombusPerimeter;whiteSpace=wrap;html=1;align=center;" parent="1" vertex="1">
                    <mxGeometry x="-330" y="-425" width="80" height="50" as="geometry"/>
                </mxCell>
                <mxCell id="2Ah-4GNUHKOsoWv0ykdI-17" style="edgeStyle=orthogonalEdgeStyle;rounded=0;orthogonalLoop=1;jettySize=auto;html=1;endArrow=none;endFill=0;" parent="1" source="2Ah-4GNUHKOsoWv0ykdI-11" target="2Ah-4GNUHKOsoWv0ykdI-3" edge="1">
                    <mxGeometry relative="1" as="geometry"/>
                </mxCell>
                <mxCell id="2Ah-4GNUHKOsoWv0ykdI-11" value="está" style="shape=rhombus;perimeter=rhombusPerimeter;whiteSpace=wrap;html=1;align=center;" parent="1" vertex="1">
                    <mxGeometry x="-30" y="-640" width="80" height="40" as="geometry"/>
                </mxCell>
                <mxCell id="2Ah-4GNUHKOsoWv0ykdI-21" style="edgeStyle=orthogonalEdgeStyle;rounded=0;orthogonalLoop=1;jettySize=auto;html=1;endArrow=none;endFill=0;" parent="1" source="2Ah-4GNUHKOsoWv0ykdI-12" target="2Ah-4GNUHKOsoWv0ykdI-5" edge="1">
                    <mxGeometry relative="1" as="geometry"/>
                </mxCell>
                <mxCell id="2Ah-4GNUHKOsoWv0ykdI-12" value="Tem" style="shape=rhombus;perimeter=rhombusPerimeter;whiteSpace=wrap;html=1;align=center;" parent="1" vertex="1">
                    <mxGeometry x="60" y="-1000" width="80" height="40" as="geometry"/>
                </mxCell>
                <mxCell id="2Ah-4GNUHKOsoWv0ykdI-24" value="email" style="ellipse;whiteSpace=wrap;html=1;align=center;" parent="1" vertex="1">
                    <mxGeometry x="-590" y="-920" width="100" height="40" as="geometry"/>
                </mxCell>
                <mxCell id="2Ah-4GNUHKOsoWv0ykdI-25" value="código&lt;span style=&quot;color: rgba(0 , 0 , 0 , 0) ; font-family: monospace ; font-size: 0px&quot;&gt;%3CmxGraphModel%3E%3Croot%3E%3CmxCell%20id%3D%220%22%2F%3E%3CmxCell%20id%3D%221%22%20parent%3D%220%22%2F%3E%3CmxCell%20id%3D%222%22%20value%3D%22Faz%22%20style%3D%22shape%3Drhombus%3Bperimeter%3DrhombusPerimeter%3BwhiteSpace%3Dwrap%3Bhtml%3D1%3Balign%3Dcenter%3B%22%20vertex%3D%221%22%20parent%3D%221%22%3E%3CmxGeometry%20x%3D%22240%22%20y%3D%22200%22%20width%3D%2280%22%20height%3D%2240%22%20as%3D%22geometry%22%2F%3E%3C%2FmxCell%3E%3C%2Froot%3E%3C%2FmxGraphModel%3E&lt;/span&gt;" style="ellipse;whiteSpace=wrap;html=1;align=center;fontStyle=4;" parent="1" vertex="1">
                    <mxGeometry x="80" y="-1050" width="100" height="40" as="geometry"/>
                </mxCell>
                <mxCell id="2Ah-4GNUHKOsoWv0ykdI-26" value="código&lt;span style=&quot;color: rgba(0 , 0 , 0 , 0) ; font-family: monospace ; font-size: 0px&quot;&gt;%3CmxGraphModel%3E%3Croot%3E%3CmxCell%20id%3D%220%22%2F%3E%3CmxCell%20id%3D%221%22%20parent%3D%220%22%2F%3E%3CmxCell%20id%3D%222%22%20value%3D%22Faz%22%20style%3D%22shape%3Drhombus%3Bperimeter%3DrhombusPerimeter%3BwhiteSpace%3Dwrap%3Bhtml%3D1%3Balign%3Dcenter%3B%22%20vertex%3D%221%22%20parent%3D%221%22%3E%3CmxGeometry%20x%3D%22240%22%20y%3D%22200%22%20width%3D%2280%22%20height%3D%2240%22%20as%3D%22geometry%22%2F%3E%3C%2FmxCell%3E%3C%2Froot%3E%3C%2FmxGraphModel%3E&lt;/span&gt;" style="ellipse;whiteSpace=wrap;html=1;align=center;fontStyle=4;" parent="1" vertex="1">
                    <mxGeometry x="-130" y="-910" width="100" height="40" as="geometry"/>
                </mxCell>
                <mxCell id="2Ah-4GNUHKOsoWv0ykdI-27" value="código&lt;span style=&quot;color: rgba(0 , 0 , 0 , 0) ; font-family: monospace ; font-size: 0px&quot;&gt;%3CmxGraphModel%3E%3Croot%3E%3CmxCell%20id%3D%220%22%2F%3E%3CmxCell%20id%3D%221%22%20parent%3D%220%22%2F%3E%3CmxCell%20id%3D%222%22%20value%3D%22Faz%22%20style%3D%22shape%3Drhombus%3Bperimeter%3DrhombusPerimeter%3BwhiteSpace%3Dwrap%3Bhtml%3D1%3Balign%3Dcenter%3B%22%20vertex%3D%221%22%20parent%3D%221%22%3E%3CmxGeometry%20x%3D%22240%22%20y%3D%22200%22%20width%3D%2280%22%20height%3D%2240%22%20as%3D%22geometry%22%2F%3E%3C%2FmxCell%3E%3C%2Froot%3E%3C%2FmxGraphModel%3E&lt;/span&gt;" style="ellipse;whiteSpace=wrap;html=1;align=center;fontStyle=4;" parent="1" vertex="1">
                    <mxGeometry x="-140" y="-600" width="100" height="40" as="geometry"/>
                </mxCell>
                <mxCell id="2Ah-4GNUHKOsoWv0ykdI-28" value="código&lt;span style=&quot;color: rgba(0 , 0 , 0 , 0) ; font-family: monospace ; font-size: 0px&quot;&gt;%3CmxGraphModel%3E%3Croot%3E%3CmxCell%20id%3D%220%22%2F%3E%3CmxCell%20id%3D%221%22%20parent%3D%220%22%2F%3E%3CmxCell%20id%3D%222%22%20value%3D%22Faz%22%20style%3D%22shape%3Drhombus%3Bperimeter%3DrhombusPerimeter%3BwhiteSpace%3Dwrap%3Bhtml%3D1%3Balign%3Dcenter%3B%22%20vertex%3D%221%22%20parent%3D%221%22%3E%3CmxGeometry%20x%3D%22240%22%20y%3D%22200%22%20width%3D%2280%22%20height%3D%2240%22%20as%3D%22geometry%22%2F%3E%3C%2FmxCell%3E%3C%2Froot%3E%3C%2FmxGraphModel%3E&lt;/span&gt;" style="ellipse;whiteSpace=wrap;html=1;align=center;fontStyle=4;" parent="1" vertex="1">
                    <mxGeometry x="-560" y="-470" width="100" height="40" as="geometry"/>
                </mxCell>
                <mxCell id="2Ah-4GNUHKOsoWv0ykdI-29" value="código&lt;span style=&quot;color: rgba(0 , 0 , 0 , 0) ; font-family: monospace ; font-size: 0px&quot;&gt;%3CmxGraphModel%3E%3Croot%3E%3CmxCell%20id%3D%220%22%2F%3E%3CmxCell%20id%3D%221%22%20parent%3D%220%22%2F%3E%3CmxCell%20id%3D%222%22%20value%3D%22Faz%22%20style%3D%22shape%3Drhombus%3Bperimeter%3DrhombusPerimeter%3BwhiteSpace%3Dwrap%3Bhtml%3D1%3Balign%3Dcenter%3B%22%20vertex%3D%221%22%20parent%3D%221%22%3E%3CmxGeometry%20x%3D%22240%22%20y%3D%22200%22%20width%3D%2280%22%20height%3D%2240%22%20as%3D%22geometry%22%2F%3E%3C%2FmxCell%3E%3C%2Froot%3E%3C%2FmxGraphModel%3E&lt;/span&gt;" style="ellipse;whiteSpace=wrap;html=1;align=center;fontStyle=4;" parent="1" vertex="1">
                    <mxGeometry x="-490" y="-930" width="100" height="40" as="geometry"/>
                </mxCell>
                <mxCell id="2Ah-4GNUHKOsoWv0ykdI-30" value="gênero" style="ellipse;whiteSpace=wrap;html=1;align=center;" parent="1" vertex="1">
                    <mxGeometry x="-660" y="-860" width="100" height="40" as="geometry"/>
                </mxCell>
                <mxCell id="2Ah-4GNUHKOsoWv0ykdI-31" value="dt_nascimento" style="ellipse;whiteSpace=wrap;html=1;align=center;" parent="1" vertex="1">
                    <mxGeometry x="-650" y="-800" width="100" height="40" as="geometry"/>
                </mxCell>
                <mxCell id="2Ah-4GNUHKOsoWv0ykdI-32" value="nm&lt;span style=&quot;color: rgba(0 , 0 , 0 , 0) ; font-family: monospace ; font-size: 0px&quot;&gt;%3CmxGraphModel%3E%3Croot%3E%3CmxCell%20id%3D%220%22%2F%3E%3CmxCell%20id%3D%221%22%20parent%3D%220%22%2F%3E%3CmxCell%20id%3D%222%22%20value%3D%22c%C3%B3digo%26lt%3Bspan%20style%3D%26quot%3Bcolor%3A%20rgba(0%20%2C%200%20%2C%200%20%2C%200)%20%3B%20font-family%3A%20monospace%20%3B%20font-size%3A%200px%26quot%3B%26gt%3B%253CmxGraphModel%253E%253Croot%253E%253CmxCell%2520id%253D%25220%2522%252F%253E%253CmxCell%2520id%253D%25221%2522%2520parent%253D%25220%2522%252F%253E%253CmxCell%2520id%253D%25222%2522%2520value%253D%2522Faz%2522%2520style%253D%2522shape%253Drhombus%253Bperimeter%253DrhombusPerimeter%253BwhiteSpace%253Dwrap%253Bhtml%253D1%253Balign%253Dcenter%253B%2522%2520vertex%253D%25221%2522%2520parent%253D%25221%2522%253E%253CmxGeometry%2520x%253D%2522240%2522%2520y%253D%2522200%2522%2520width%253D%252280%2522%2520height%253D%252240%2522%2520as%253D%2522geometry%2522%252F%253E%253C%252FmxCell%253E%253C%252Froot%253E%253C%252FmxGraphModel%253E%26lt%3B%2Fspan%26gt%3B%22%20style%3D%22ellipse%3BwhiteSpace%3Dwrap%3Bhtml%3D1%3Balign%3Dcenter%3BfontStyle%3D4%3B%22%20vertex%3D%221%22%20parent%3D%221%22%3E%3CmxGeometry%20x%3D%2290%22%20y%3D%22100%22%20width%3D%22100%22%20height%3D%2240%22%20as%3D%22geometry%22%2F%3E%3C%2FmxCell%3E%3C%2Froot%3E%3C%2FmxGraphModel%3E&lt;/span&gt;" style="ellipse;whiteSpace=wrap;html=1;align=center;" parent="1" vertex="1">
                    <mxGeometry x="-610" y="-750" width="100" height="40" as="geometry"/>
                </mxCell>
                <mxCell id="2Ah-4GNUHKOsoWv0ykdI-33" value="saldo" style="ellipse;whiteSpace=wrap;html=1;align=center;" parent="1" vertex="1">
                    <mxGeometry x="-400" y="-900" width="100" height="40" as="geometry"/>
                </mxCell>
                <mxCell id="2Ah-4GNUHKOsoWv0ykdI-34" value="nr_celular" style="ellipse;shape=doubleEllipse;margin=3;whiteSpace=wrap;html=1;align=center;" parent="1" vertex="1">
                    <mxGeometry x="-350" y="-850" width="100" height="40" as="geometry"/>
                </mxCell>
                <mxCell id="2Ah-4GNUHKOsoWv0ykdI-35" value="" style="endArrow=none;html=1;rounded=0;entryX=1;entryY=0.25;entryDx=0;entryDy=0;" parent="1" target="2Ah-4GNUHKOsoWv0ykdI-1" edge="1">
                    <mxGeometry relative="1" as="geometry">
                        <mxPoint x="-340" y="-820" as="sourcePoint"/>
                        <mxPoint x="-180" y="-740" as="targetPoint"/>
                    </mxGeometry>
                </mxCell>
                <mxCell id="2Ah-4GNUHKOsoWv0ykdI-36" value="" style="endArrow=none;html=1;rounded=0;exitX=0.354;exitY=1.036;exitDx=0;exitDy=0;entryX=0.75;entryY=0;entryDx=0;entryDy=0;exitPerimeter=0;" parent="1" source="2Ah-4GNUHKOsoWv0ykdI-33" target="2Ah-4GNUHKOsoWv0ykdI-1" edge="1">
                    <mxGeometry relative="1" as="geometry">
                        <mxPoint x="-339.99999999999955" y="-820" as="sourcePoint"/>
                        <mxPoint x="-360" y="-800" as="targetPoint"/>
                    </mxGeometry>
                </mxCell>
                <mxCell id="2Ah-4GNUHKOsoWv0ykdI-37" value="" style="endArrow=none;html=1;rounded=0;exitX=0.718;exitY=1.067;exitDx=0;exitDy=0;entryX=0.5;entryY=0;entryDx=0;entryDy=0;exitPerimeter=0;" parent="1" source="2Ah-4GNUHKOsoWv0ykdI-29" target="2Ah-4GNUHKOsoWv0ykdI-1" edge="1">
                    <mxGeometry relative="1" as="geometry">
                        <mxPoint x="-354.5999999999999" y="-868.56" as="sourcePoint"/>
                        <mxPoint x="-385" y="-810" as="targetPoint"/>
                    </mxGeometry>
                </mxCell>
                <mxCell id="2Ah-4GNUHKOsoWv0ykdI-38" value="" style="endArrow=none;html=1;rounded=0;exitX=1;exitY=1;exitDx=0;exitDy=0;entryX=0.361;entryY=-0.026;entryDx=0;entryDy=0;entryPerimeter=0;" parent="1" source="2Ah-4GNUHKOsoWv0ykdI-24" target="2Ah-4GNUHKOsoWv0ykdI-1" edge="1">
                    <mxGeometry relative="1" as="geometry">
                        <mxPoint x="-408.1999999999998" y="-877.3199999999999" as="sourcePoint"/>
                        <mxPoint x="-410" y="-810" as="targetPoint"/>
                    </mxGeometry>
                </mxCell>
                <mxCell id="2Ah-4GNUHKOsoWv0ykdI-39" value="" style="endArrow=none;html=1;rounded=0;exitX=1;exitY=0.5;exitDx=0;exitDy=0;entryX=0;entryY=0;entryDx=0;entryDy=0;" parent="1" source="2Ah-4GNUHKOsoWv0ykdI-30" target="2Ah-4GNUHKOsoWv0ykdI-1" edge="1">
                    <mxGeometry relative="1" as="geometry">
                        <mxPoint x="-494.8544793961721" y="-875.774432136546" as="sourcePoint"/>
                        <mxPoint x="-423.89999999999986" y="-811.04" as="targetPoint"/>
                    </mxGeometry>
                </mxCell>
                <mxCell id="2Ah-4GNUHKOsoWv0ykdI-40" value="" style="endArrow=none;html=1;rounded=0;exitX=1;exitY=0.5;exitDx=0;exitDy=0;entryX=0;entryY=0.5;entryDx=0;entryDy=0;" parent="1" source="2Ah-4GNUHKOsoWv0ykdI-31" target="2Ah-4GNUHKOsoWv0ykdI-1" edge="1">
                    <mxGeometry relative="1" as="geometry">
                        <mxPoint x="-484.8544793961721" y="-865.774432136546" as="sourcePoint"/>
                        <mxPoint x="-413.89999999999986" y="-801.04" as="targetPoint"/>
                    </mxGeometry>
                </mxCell>
                <mxCell id="2Ah-4GNUHKOsoWv0ykdI-41" value="" style="endArrow=none;html=1;rounded=0;exitX=1;exitY=0;exitDx=0;exitDy=0;entryX=0;entryY=1;entryDx=0;entryDy=0;" parent="1" source="2Ah-4GNUHKOsoWv0ykdI-32" target="2Ah-4GNUHKOsoWv0ykdI-1" edge="1">
                    <mxGeometry relative="1" as="geometry">
                        <mxPoint x="-474.8544793961721" y="-855.774432136546" as="sourcePoint"/>
                        <mxPoint x="-403.89999999999986" y="-791.04" as="targetPoint"/>
                    </mxGeometry>
                </mxCell>
                <mxCell id="2Ah-4GNUHKOsoWv0ykdI-43" value="vlr_metro&lt;span style=&quot;color: rgba(0 , 0 , 0 , 0) ; font-family: monospace ; font-size: 0px&quot;&gt;%3CmxGraphModel%3E%3Croot%3E%3CmxCell%20id%3D%220%22%2F%3E%3CmxCell%20id%3D%221%22%20parent%3D%220%22%2F%3E%3CmxCell%20id%3D%222%22%20value%3D%22nm%26lt%3Bspan%20style%3D%26quot%3Bcolor%3A%20rgba(0%20%2C%200%20%2C%200%20%2C%200)%20%3B%20font-family%3A%20monospace%20%3B%20font-size%3A%200px%26quot%3B%26gt%3B%253CmxGraphModel%253E%253Croot%253E%253CmxCell%2520id%253D%25220%2522%252F%253E%253CmxCell%2520id%253D%25221%2522%2520parent%253D%25220%2522%252F%253E%253CmxCell%2520id%253D%25222%2522%2520value%253D%2522c%25C3%25B3digo%2526lt%253Bspan%2520style%253D%2526quot%253Bcolor%253A%2520rgba(0%2520%252C%25200%2520%252C%25200%2520%252C%25200)%2520%253B%2520font-family%253A%2520monospace%2520%253B%2520font-size%253A%25200px%2526quot%253B%2526gt%253B%25253CmxGraphModel%25253E%25253Croot%25253E%25253CmxCell%252520id%25253D%2525220%252522%25252F%25253E%25253CmxCell%252520id%25253D%2525221%252522%252520parent%25253D%2525220%252522%25252F%25253E%25253CmxCell%252520id%25253D%2525222%252522%252520value%25253D%252522Faz%252522%252520style%25253D%252522shape%25253Drhombus%25253Bperimeter%25253DrhombusPerimeter%25253BwhiteSpace%25253Dwrap%25253Bhtml%25253D1%25253Balign%25253Dcenter%25253B%252522%252520vertex%25253D%2525221%252522%252520parent%25253D%2525221%252522%25253E%25253CmxGeometry%252520x%25253D%252522240%252522%252520y%25253D%252522200%252522%252520width%25253D%25252280%252522%252520height%25253D%25252240%252522%252520as%25253D%252522geometry%252522%25252F%25253E%25253C%25252FmxCell%25253E%25253C%25252Froot%25253E%25253C%25252FmxGraphModel%25253E%2526lt%253B%252Fspan%2526gt%253B%2522%2520style%253D%2522ellipse%253BwhiteSpace%253Dwrap%253Bhtml%253D1%253Balign%253Dcenter%253BfontStyle%253D4%253B%2522%2520vertex%253D%25221%2522%2520parent%253D%25221%2522%253E%253CmxGeometry%2520x%253D%252290%2522%2520y%253D%2522100%2522%2520width%253D%2522100%2522%2520height%253D%252240%2522%2520as%253D%2522geometry%2522%252F%253E%253C%252FmxCell%253E%253C%252Froot%253E%253C%252FmxGraphModel%253E%26lt%3B%2Fspan%26gt%3B%22%20style%3D%22ellipse%3BwhiteSpace%3Dwrap%3Bhtml%3D1%3Balign%3Dcenter%3B%22%20vertex%3D%221%22%20parent%3D%221%22%3E%3CmxGeometry%20x%3D%22-200%22%20y%3D%22230%22%20width%3D%22100%22%20height%3D%2240%22%20as%3D%22geometry%22%2F%3E%3C%2FmxCell%3E%3C%2Froot%3E%3C%2FmxGraphModel%3E&lt;/span&gt;" style="ellipse;whiteSpace=wrap;html=1;align=center;" parent="1" vertex="1">
                    <mxGeometry x="-610" y="-415" width="100" height="40" as="geometry"/>
                </mxCell>
                <mxCell id="2Ah-4GNUHKOsoWv0ykdI-44" value="&lt;span style=&quot;font-size: 12px&quot;&gt;vlr_fixo&lt;/span&gt;&lt;span style=&quot;color: rgba(0 , 0 , 0 , 0) ; font-family: monospace ; font-size: 0px&quot;&gt;%3CmxGraphModel%3E%3Croot%3E%3CmxCell%20id%3D%220%22%2F%3E%3CmxCell%20id%3D%221%22%20parent%3D%220%22%2F%3E%3CmxCell%20id%3D%222%22%20value%3D%22nm%26lt%3Bspan%20style%3D%26quot%3Bcolor%3A%20rgba(0%20%2C%200%20%2C%200%20%2C%200)%20%3B%20font-family%3A%20monospace%20%3B%20font-size%3A%200px%26quot%3B%26gt%3B%253CmxGraphModel%253E%253Croot%253E%253CmxCell%2520id%253D%25220%2522%252F%253E%253CmxCell%2520id%253D%25221%2522%2520parent%253D%25220%2522%252F%253E%253CmxCell%2520id%253D%25222%2522%2520value%253D%2522c%25C3%25B3digo%2526lt%253Bspan%2520style%253D%2526quot%253Bcolor%253A%2520rgba(0%2520%252C%25200%2520%252C%25200%2520%252C%25200)%2520%253B%2520font-family%253A%2520monospace%2520%253B%2520font-size%253A%25200px%2526quot%253B%2526gt%253B%25253CmxGraphModel%25253E%25253Croot%25253E%25253CmxCell%252520id%25253D%2525220%252522%25252F%25253E%25253CmxCell%252520id%25253D%2525221%252522%252520parent%25253D%2525220%252522%25252F%25253E%25253CmxCell%252520id%25253D%2525222%252522%252520value%25253D%252522Faz%252522%252520style%25253D%252522shape%25253Drhombus%25253Bperimeter%25253DrhombusPerimeter%25253BwhiteSpace%25253Dwrap%25253Bhtml%25253D1%25253Balign%25253Dcenter%25253B%252522%252520vertex%25253D%2525221%252522%252520parent%25253D%2525221%252522%25253E%25253CmxGeometry%252520x%25253D%252522240%252522%252520y%25253D%252522200%252522%252520width%25253D%25252280%252522%252520height%25253D%25252240%252522%252520as%25253D%252522geometry%252522%25252F%25253E%25253C%25252FmxCell%25253E%25253C%25252Froot%25253E%25253C%25252FmxGraphModel%25253E%2526lt%253B%252Fspan%2526gt%253B%2522%2520style%253D%2522ellipse%253BwhiteSpace%253Dwrap%253Bhtml%253D1%253Balign%253Dcenter%253BfontStyle%253D4%253B%2522%2520vertex%253D%25221%2522%2520parent%253D%25221%2522%253E%253CmxGeometry%2520x%253D%252290%2522%2520y%253D%2522100%2522%2520width%253D%2522100%2522%2520height%253D%252240%2522%2520as%253D%2522geometry%2522%252F%253E%253C%252FmxCell%253E%253C%252Froot%253E%253C%252FmxGraphModel%253E%26lt%3B%2Fspan%26gt%3B%22%20style%3D%22ellipse%3BwhiteSpace%3Dwrap%3Bhtml%3D1%3Balign%3Dcenter%3B%22%20vertex%3D%221%22%20parent%3D%221%22%3E%3CmxGeometry%20x%3D%22-200%22%20y%3D%22230%22%20width%3D%22100%22%20height%3D%2240%22%20as%3D%22geometry%22%2F%3E%3C%2FmxCell%3E%3C%2Froot%3E%3C%2FmxGraph&lt;/span&gt;" style="ellipse;whiteSpace=wrap;html=1;align=center;" parent="1" vertex="1">
                    <mxGeometry x="-570" y="-360" width="100" height="40" as="geometry"/>
                </mxCell>
                <mxCell id="2Ah-4GNUHKOsoWv0ykdI-45" value="" style="endArrow=none;html=1;rounded=0;exitX=1;exitY=1;exitDx=0;exitDy=0;entryX=0;entryY=0;entryDx=0;entryDy=0;" parent="1" source="2Ah-4GNUHKOsoWv0ykdI-28" target="2Ah-4GNUHKOsoWv0ykdI-2" edge="1">
                    <mxGeometry relative="1" as="geometry">
                        <mxPoint x="-340" y="-360" as="sourcePoint"/>
                        <mxPoint x="-180" y="-360" as="targetPoint"/>
                    </mxGeometry>
                </mxCell>
                <mxCell id="2Ah-4GNUHKOsoWv0ykdI-46" value="" style="endArrow=none;html=1;rounded=0;entryX=0;entryY=0.5;entryDx=0;entryDy=0;" parent="1" source="2Ah-4GNUHKOsoWv0ykdI-43" target="2Ah-4GNUHKOsoWv0ykdI-2" edge="1">
                    <mxGeometry relative="1" as="geometry">
                        <mxPoint x="-464.85447939617893" y="-425.77443213654897" as="sourcePoint"/>
                        <mxPoint x="-470" y="-400" as="targetPoint"/>
                    </mxGeometry>
                </mxCell>
                <mxCell id="2Ah-4GNUHKOsoWv0ykdI-47" value="" style="endArrow=none;html=1;rounded=0;" parent="1" source="2Ah-4GNUHKOsoWv0ykdI-44" edge="1">
                    <mxGeometry relative="1" as="geometry">
                        <mxPoint x="-454.85447939617893" y="-415.77443213654897" as="sourcePoint"/>
                        <mxPoint x="-460" y="-380" as="targetPoint"/>
                    </mxGeometry>
                </mxCell>
                <mxCell id="2Ah-4GNUHKOsoWv0ykdI-48" value="dt_aquisição" style="ellipse;whiteSpace=wrap;html=1;align=center;" parent="1" vertex="1">
                    <mxGeometry x="40" y="-910" width="100" height="40" as="geometry"/>
                </mxCell>
                <mxCell id="2Ah-4GNUHKOsoWv0ykdI-49" value="loja comprada" style="ellipse;whiteSpace=wrap;html=1;align=center;" parent="1" vertex="1">
                    <mxGeometry x="110" y="-860" width="100" height="40" as="geometry"/>
                </mxCell>
                <mxCell id="2Ah-4GNUHKOsoWv0ykdI-50" value="modelo" style="ellipse;whiteSpace=wrap;html=1;align=center;" parent="1" vertex="1">
                    <mxGeometry x="110" y="-800" width="100" height="40" as="geometry"/>
                </mxCell>
                <mxCell id="2Ah-4GNUHKOsoWv0ykdI-51" value="nr_ativo fixo&lt;span style=&quot;color: rgba(0 , 0 , 0 , 0) ; font-family: monospace ; font-size: 0px&quot;&gt;%3CmxGraphModel%3E%3Croot%3E%3CmxCell%20id%3D%220%22%2F%3E%3CmxCell%20id%3D%221%22%20parent%3D%220%22%2F%3E%3CmxCell%20id%3D%222%22%20value%3D%22saldo%22%20style%3D%22ellipse%3BwhiteSpace%3Dwrap%3Bhtml%3D1%3Balign%3Dcenter%3B%22%20vertex%3D%221%22%20parent%3D%221%22%3E%3CmxGeometry%20x%3D%22460%22%20y%3D%22110%22%20width%3D%22100%22%20height%3D%2240%22%20as%3D%22geometry%22%2F%3E%3C%2FmxCell%3E%3C%2Froot%3E%3C%2FmxGraphModel%3E&lt;/span&gt;" style="ellipse;whiteSpace=wrap;html=1;align=center;" parent="1" vertex="1">
                    <mxGeometry x="-180" y="-840" width="100" height="40" as="geometry"/>
                </mxCell>
                <mxCell id="2Ah-4GNUHKOsoWv0ykdI-52" value="marca" style="ellipse;whiteSpace=wrap;html=1;align=center;" parent="1" vertex="1">
                    <mxGeometry x="30" y="-760" width="100" height="40" as="geometry"/>
                </mxCell>
                <mxCell id="2Ah-4GNUHKOsoWv0ykdI-53" value="nr NF" style="ellipse;whiteSpace=wrap;html=1;align=center;" parent="1" vertex="1">
                    <mxGeometry x="-150" y="-780" width="100" height="40" as="geometry"/>
                </mxCell>
                <mxCell id="2Ah-4GNUHKOsoWv0ykdI-55" value="" style="endArrow=none;html=1;rounded=0;exitX=0.752;exitY=1.048;exitDx=0;exitDy=0;exitPerimeter=0;entryX=0.25;entryY=0;entryDx=0;entryDy=0;" parent="1" source="2Ah-4GNUHKOsoWv0ykdI-26" target="2Ah-4GNUHKOsoWv0ykdI-4" edge="1">
                    <mxGeometry relative="1" as="geometry">
                        <mxPoint x="-310" y="-870" as="sourcePoint"/>
                        <mxPoint x="-150" y="-870" as="targetPoint"/>
                    </mxGeometry>
                </mxCell>
                <mxCell id="2Ah-4GNUHKOsoWv0ykdI-56" value="" style="endArrow=none;html=1;rounded=0;exitX=1;exitY=0.5;exitDx=0;exitDy=0;" parent="1" source="2Ah-4GNUHKOsoWv0ykdI-51" edge="1">
                    <mxGeometry relative="1" as="geometry">
                        <mxPoint x="-44.79999999999973" y="-858.0799999999999" as="sourcePoint"/>
                        <mxPoint x="-40" y="-820" as="targetPoint"/>
                    </mxGeometry>
                </mxCell>
                <mxCell id="2Ah-4GNUHKOsoWv0ykdI-57" value="" style="endArrow=none;html=1;rounded=0;exitX=0.939;exitY=0.183;exitDx=0;exitDy=0;exitPerimeter=0;entryX=0;entryY=1;entryDx=0;entryDy=0;" parent="1" source="2Ah-4GNUHKOsoWv0ykdI-53" target="2Ah-4GNUHKOsoWv0ykdI-4" edge="1">
                    <mxGeometry relative="1" as="geometry">
                        <mxPoint x="-34.79999999999973" y="-848.0799999999999" as="sourcePoint"/>
                        <mxPoint x="5" y="-810" as="targetPoint"/>
                    </mxGeometry>
                </mxCell>
                <mxCell id="2Ah-4GNUHKOsoWv0ykdI-58" value="" style="endArrow=none;html=1;rounded=0;exitX=0;exitY=1;exitDx=0;exitDy=0;entryX=0.75;entryY=0;entryDx=0;entryDy=0;" parent="1" source="2Ah-4GNUHKOsoWv0ykdI-48" target="2Ah-4GNUHKOsoWv0ykdI-4" edge="1">
                    <mxGeometry relative="1" as="geometry">
                        <mxPoint x="-24.799999999999727" y="-838.0799999999999" as="sourcePoint"/>
                        <mxPoint x="15" y="-800" as="targetPoint"/>
                    </mxGeometry>
                </mxCell>
                <mxCell id="2Ah-4GNUHKOsoWv0ykdI-59" value="" style="endArrow=none;html=1;rounded=0;exitX=0;exitY=0.5;exitDx=0;exitDy=0;entryX=1;entryY=0.25;entryDx=0;entryDy=0;" parent="1" source="2Ah-4GNUHKOsoWv0ykdI-49" target="2Ah-4GNUHKOsoWv0ykdI-4" edge="1">
                    <mxGeometry relative="1" as="geometry">
                        <mxPoint x="-14.799999999999727" y="-828.0799999999999" as="sourcePoint"/>
                        <mxPoint x="25" y="-790" as="targetPoint"/>
                    </mxGeometry>
                </mxCell>
                <mxCell id="2Ah-4GNUHKOsoWv0ykdI-60" value="" style="endArrow=none;html=1;rounded=0;exitX=0.012;exitY=0.259;exitDx=0;exitDy=0;exitPerimeter=0;entryX=1;entryY=0.5;entryDx=0;entryDy=0;" parent="1" source="2Ah-4GNUHKOsoWv0ykdI-50" target="2Ah-4GNUHKOsoWv0ykdI-4" edge="1">
                    <mxGeometry relative="1" as="geometry">
                        <mxPoint x="-4.799999999999727" y="-818.0799999999999" as="sourcePoint"/>
                        <mxPoint x="35" y="-780" as="targetPoint"/>
                    </mxGeometry>
                </mxCell>
                <mxCell id="2Ah-4GNUHKOsoWv0ykdI-61" value="" style="endArrow=none;html=1;rounded=0;exitX=0.859;exitY=1.041;exitDx=0;exitDy=0;exitPerimeter=0;entryX=0.394;entryY=0.043;entryDx=0;entryDy=0;entryPerimeter=0;" parent="1" source="2Ah-4GNUHKOsoWv0ykdI-4" target="2Ah-4GNUHKOsoWv0ykdI-52" edge="1">
                    <mxGeometry relative="1" as="geometry">
                        <mxPoint x="5.200000000000273" y="-808.0799999999999" as="sourcePoint"/>
                        <mxPoint x="45" y="-770" as="targetPoint"/>
                    </mxGeometry>
                </mxCell>
                <mxCell id="2Ah-4GNUHKOsoWv0ykdI-62" value="técnico" style="ellipse;whiteSpace=wrap;html=1;align=center;" parent="1" vertex="1">
                    <mxGeometry x="250" y="-1120" width="100" height="40" as="geometry"/>
                </mxCell>
                <mxCell id="2Ah-4GNUHKOsoWv0ykdI-63" value="serviços" style="ellipse;whiteSpace=wrap;html=1;align=center;" parent="1" vertex="1">
                    <mxGeometry x="317" y="-1070" width="100" height="40" as="geometry"/>
                </mxCell>
                <mxCell id="2Ah-4GNUHKOsoWv0ykdI-64" value="coordenas GPS" style="ellipse;whiteSpace=wrap;html=1;align=center;" parent="1" vertex="1">
                    <mxGeometry x="150" y="-1110" width="100" height="40" as="geometry"/>
                </mxCell>
                <mxCell id="2Ah-4GNUHKOsoWv0ykdI-65" value="peças trocadas" style="ellipse;whiteSpace=wrap;html=1;align=center;" parent="1" vertex="1">
                    <mxGeometry x="340" y="-1010" width="100" height="40" as="geometry"/>
                </mxCell>
                <mxCell id="2Ah-4GNUHKOsoWv0ykdI-66" value="dt hr&lt;br&gt;inicio" style="ellipse;whiteSpace=wrap;html=1;align=center;" parent="1" vertex="1">
                    <mxGeometry x="330" y="-960" width="100" height="40" as="geometry"/>
                </mxCell>
                <mxCell id="2Ah-4GNUHKOsoWv0ykdI-67" value="dt hr&lt;br&gt;final" style="ellipse;whiteSpace=wrap;html=1;align=center;" parent="1" vertex="1">
                    <mxGeometry x="230" y="-920" width="100" height="40" as="geometry"/>
                </mxCell>
                <mxCell id="2Ah-4GNUHKOsoWv0ykdI-68" value="" style="endArrow=none;html=1;rounded=0;exitX=0.953;exitY=0.79;exitDx=0;exitDy=0;exitPerimeter=0;entryX=0;entryY=0;entryDx=0;entryDy=0;" parent="1" source="2Ah-4GNUHKOsoWv0ykdI-25" target="2Ah-4GNUHKOsoWv0ykdI-5" edge="1">
                    <mxGeometry relative="1" as="geometry">
                        <mxPoint x="30" y="-960" as="sourcePoint"/>
                        <mxPoint x="190" y="-960" as="targetPoint"/>
                    </mxGeometry>
                </mxCell>
                <mxCell id="2Ah-4GNUHKOsoWv0ykdI-69" value="" style="endArrow=none;html=1;rounded=0;exitX=0.5;exitY=1;exitDx=0;exitDy=0;entryX=0.25;entryY=0;entryDx=0;entryDy=0;" parent="1" source="2Ah-4GNUHKOsoWv0ykdI-64" target="2Ah-4GNUHKOsoWv0ykdI-5" edge="1">
                    <mxGeometry relative="1" as="geometry">
                        <mxPoint x="185.30000000000018" y="-1008.4000000000001" as="sourcePoint"/>
                        <mxPoint x="200" y="-990" as="targetPoint"/>
                    </mxGeometry>
                </mxCell>
                <mxCell id="2Ah-4GNUHKOsoWv0ykdI-70" value="" style="endArrow=none;html=1;rounded=0;exitX=0.3;exitY=1;exitDx=0;exitDy=0;exitPerimeter=0;entryX=0.5;entryY=0;entryDx=0;entryDy=0;" parent="1" source="2Ah-4GNUHKOsoWv0ykdI-62" target="2Ah-4GNUHKOsoWv0ykdI-5" edge="1">
                    <mxGeometry relative="1" as="geometry">
                        <mxPoint x="195.30000000000018" y="-998.4000000000001" as="sourcePoint"/>
                        <mxPoint x="210" y="-980" as="targetPoint"/>
                    </mxGeometry>
                </mxCell>
                <mxCell id="2Ah-4GNUHKOsoWv0ykdI-71" value="" style="endArrow=none;html=1;rounded=0;exitX=0;exitY=0.5;exitDx=0;exitDy=0;" parent="1" source="2Ah-4GNUHKOsoWv0ykdI-63" target="2Ah-4GNUHKOsoWv0ykdI-5" edge="1">
                    <mxGeometry relative="1" as="geometry">
                        <mxPoint x="205.30000000000018" y="-988.4000000000001" as="sourcePoint"/>
                        <mxPoint x="220" y="-970" as="targetPoint"/>
                    </mxGeometry>
                </mxCell>
                <mxCell id="2Ah-4GNUHKOsoWv0ykdI-72" value="" style="endArrow=none;html=1;rounded=0;exitX=0.013;exitY=0.737;exitDx=0;exitDy=0;exitPerimeter=0;entryX=1;entryY=0.5;entryDx=0;entryDy=0;" parent="1" source="2Ah-4GNUHKOsoWv0ykdI-65" target="2Ah-4GNUHKOsoWv0ykdI-5" edge="1">
                    <mxGeometry relative="1" as="geometry">
                        <mxPoint x="215.30000000000018" y="-978.4000000000001" as="sourcePoint"/>
                        <mxPoint x="230" y="-960" as="targetPoint"/>
                    </mxGeometry>
                </mxCell>
                <mxCell id="2Ah-4GNUHKOsoWv0ykdI-73" value="" style="endArrow=none;html=1;rounded=0;exitX=1;exitY=0.75;exitDx=0;exitDy=0;entryX=0.074;entryY=0.304;entryDx=0;entryDy=0;entryPerimeter=0;" parent="1" source="2Ah-4GNUHKOsoWv0ykdI-5" target="2Ah-4GNUHKOsoWv0ykdI-66" edge="1">
                    <mxGeometry relative="1" as="geometry">
                        <mxPoint x="225.30000000000018" y="-968.4000000000001" as="sourcePoint"/>
                        <mxPoint x="240" y="-950" as="targetPoint"/>
                    </mxGeometry>
                </mxCell>
                <mxCell id="2Ah-4GNUHKOsoWv0ykdI-74" value="" style="endArrow=none;html=1;rounded=0;exitX=0.75;exitY=1;exitDx=0;exitDy=0;entryX=0.42;entryY=0.023;entryDx=0;entryDy=0;entryPerimeter=0;" parent="1" source="2Ah-4GNUHKOsoWv0ykdI-5" target="2Ah-4GNUHKOsoWv0ykdI-67" edge="1">
                    <mxGeometry relative="1" as="geometry">
                        <mxPoint x="235.30000000000018" y="-958.4000000000001" as="sourcePoint"/>
                        <mxPoint x="250" y="-940" as="targetPoint"/>
                    </mxGeometry>
                </mxCell>
            </root>
        </mxGraphModel>
    </diagram>
</mxfile>